<svg width="18" height="10" viewBox="0 0 18 10" fill="none" xmlns="http://www.w3.org/2000/svg">
  <path d="M8.99998 9.95249C8.70791 9.95308 8.42487 9.84652 8.19998 9.6513L0.699979 3.10368C0.444708 2.8814 0.284177 2.56199 0.253702 2.21572C0.223228 1.86945 0.325305 1.52467 0.537478 1.25725C0.749652 0.989821 1.05454 0.821647 1.38507 0.789721C1.71561 0.757795 2.04471 0.864733 2.29998 1.08701L8.99998 6.95368L15.7 1.29653C15.8278 1.18776 15.975 1.10653 16.1329 1.05751C16.2908 1.00849 16.4564 0.992653 16.6202 1.01091C16.784 1.02916 16.9427 1.08114 17.0873 1.16387C17.2318 1.2466 17.3593 1.35844 17.4625 1.49296C17.577 1.62761 17.6637 1.78557 17.7171 1.95695C17.7706 2.12834 17.7898 2.30944 17.7733 2.48893C17.7569 2.66842 17.7053 2.84242 17.6217 3.00003C17.5381 3.15764 17.4243 3.29546 17.2875 3.40487L9.78748 9.72987C9.55612 9.89423 9.27885 9.97261 8.99998 9.95249V9.95249Z" fill="#C6F0C3"/>
</svg>