<svg width="18" height="18" viewBox="0 0 18 18" fill="none" xmlns="http://www.w3.org/2000/svg">
  <path d="M13 4.87012C13 2.67012 11.21 0.870117 9 0.870117C6.79 0.870117 5 2.67012 5 4.87012C5 7.08012 6.79 8.87012 9 8.87012C11.21 8.87012 13 7.08012 13 4.87012ZM2.24 9.66012C0.320002 10.7601 -0.329998 13.2101 0.770002 15.1201C1.88 17.0401 4.32 17.6901 6.24 16.5901C8.15 15.4801 8.81 13.0401 7.7 11.1201C6.6 9.21012 4.15 8.56012 2.24 9.66012ZM11.76 16.5901C13.68 17.6901 16.12 17.0401 17.23 15.1301C18.33 13.2101 17.68 10.7701 15.76 9.66012C13.85 8.56012 11.4 9.21012 10.3 11.1201C9.19 13.0401 9.85 15.4801 11.76 16.5901Z" fill="#C6F0C3"/>
</svg>