<?xml version="1.0" encoding="UTF-8" standalone="no"?>
<!-- Created with Inkscape (http://www.inkscape.org/) -->

<svg
   version="1.1"
   id="svg1"
   width="1024"
   height="1024"
   viewBox="0 0 1024 1024"
   sodipodi:docname="uniu_logo_filled.svg"
   inkscape:version="1.3.2 (091e20e, 2023-11-25, custom)"
   xmlns:inkscape="http://www.inkscape.org/namespaces/inkscape"
   xmlns:sodipodi="http://sodipodi.sourceforge.net/DTD/sodipodi-0.dtd"
   xmlns="http://www.w3.org/2000/svg"
   xmlns:svg="http://www.w3.org/2000/svg">
  <sodipodi:namedview
     id="namedview1"
     pagecolor="#ffffff"
     bordercolor="#111111"
     borderopacity="1"
     inkscape:showpageshadow="0"
     inkscape:pageopacity="0"
     inkscape:pagecheckerboard="1"
     inkscape:deskcolor="#d1d1d1"
     showgrid="false"
     inkscape:zoom="0.70902898"
     inkscape:cx="281.37073"
     inkscape:cy="521.13526"
     inkscape:window-width="1920"
     inkscape:window-height="974"
     inkscape:window-x="-11"
     inkscape:window-y="-11"
     inkscape:window-maximized="1"
     inkscape:current-layer="g1" />
  <defs
     id="defs1" />
  <g
     id="g1">
    <g
       id="g21"
       style="display:none">
      <path
         style="display:inline;fill:#000000"
         d="m 467.78627,828.44703 c -3.84812,-2.08859 -5.43336,-7.82013 -3.87482,-14.00966 1.80639,-7.17379 4.786,-12.26854 10.96366,-18.74641 6.1342,-6.43229 11.8925,-10.24282 18.36767,-12.15471 4.15492,-1.2268 4.12736,-1.23618 -7.28604,-2.47867 -12.84062,-1.39786 -28.57879,-4.10403 -40.23888,-6.91905 l -7.78214,-1.8788 -2.64604,5.62014 c -3.57244,7.58779 -13.05812,16.92288 -21.28968,20.95169 -14.66042,7.17531 -37.23207,8.30096 -42.25,2.10701 -2.16594,-2.67355 -2.26805,-8.76295 -0.22879,-13.64359 3.72268,-8.90961 15.13645,-18.50876 26.12709,-21.97325 2.94344,-0.92784 5.34054,-1.94229 5.3269,-2.25435 -0.0136,-0.31206 -5.30113,-3.11199 -11.75,-6.22207 -6.44886,-3.11008 -15.7752,-8.11748 -20.7252,-11.12756 l -9,-5.47287 -3.87999,3.4924 c -8.68567,7.818 -22.06786,11.35947 -35.66057,9.43721 C 306.82942,751.03482 297,744.09085 297,735.54193 c 0,-9.33759 9.86895,-15.40098 29.36226,-18.03991 l 4.86226,-0.65823 -2.86226,-3.01541 c -1.57424,-1.65848 -4.92425,-4.75202 -7.44446,-6.87453 l -4.58221,-3.85911 -4.91779,1.50026 c -2.70479,0.82514 -8.9678,1.53017 -13.9178,1.56674 -14.06971,0.10394 -23.76992,-3.52076 -33.14161,-12.38411 -12.01167,-11.36014 -12.4989,-23.76942 -1.05477,-26.86424 4.76011,-1.28727 15.42588,-0.6023 23.38591,1.50187 l 5.18952,1.37181 -3.27802,-5.14354 c -1.80291,-2.82894 -4.48208,-7.05603 -5.95371,-9.39353 l -2.6757,-4.25 -6.23581,-0.0119 c -17.29183,-0.0329 -34.4082,-9.91684 -45.07237,-26.02726 -7.642,-11.54482 -9.97198,-24.74324 -5.20889,-29.50632 2.0551,-2.05511 3.4212,-2.45455 8.39466,-2.45455 7.66017,0 17.6174,3.10335 24.22563,7.55036 2.87408,1.93412 4.69279,2.87458 4.04159,2.08993 -0.6512,-0.78465 -3.36326,-8.11221 -6.02681,-16.28346 l -4.8428,-14.85683 -8.37341,-0.58898 c -14.29917,-1.0058 -24.91471,-8.05736 -32.00086,-21.25713 -2.99296,-5.57516 -3.34094,-7.11452 -3.70021,-16.3687 l -0.39657,-10.2148 3.03519,-3.0352 c 5.50195,-5.50195 14.46588,-3.57102 25.6011,5.51477 l 5.91207,4.82395 -0.65496,-6.93695 c -0.36022,-3.81533 -0.65815,-10.36695 -0.66206,-14.55915 l -0.007,-7.62219 -4.076,-0.65178 c -10.61161,-1.69687 -23.09554,-11.78935 -26.33197,-21.28778 -2.05378,-6.02751 -2.09915,-18.43471 -0.0817,-22.33608 1.92845,-3.72921 4.32019,-4.97998 9.52278,-4.97998 5.90807,0 10.59835,2.5228 17.2867,9.29815 3.2009,3.24254 5.92586,5.73945 6.05547,5.54869 0.1296,-0.19076 1.0129,-3.69571 1.9629,-7.78877 1.65054,-7.11137 1.64807,-7.48372 -0.0555,-8.38279 -4.07556,-2.15092 -14.06625,-13.5247 -16.61789,-18.91842 -5.77231,-12.20167 -5.86818,-34.60462 -0.16906,-39.50686 3.22845,-2.77703 8.45215,-2.91674 14.00422,-0.37455 4.27258,1.95633 12.75331,10.39163 14.66426,14.58571 0.63622,1.39636 1.42433,2.53884 1.75135,2.53884 0.32701,0 1.66374,-2.8125 2.97049,-6.25 1.30676,-3.4375 4.47004,-10.35703 7.02951,-15.37673 l 4.65359,-9.12672 -2.83771,-3.37328 C 259.25998,364.80293 255.41234,350.21479 257.03609,334.32222 258.37089,321.25785 261.18698,317 268.49278,317 c 7.76327,0 15.92899,7.12293 22.15568,19.32635 2.75578,5.40092 3.24055,5.3273 7.74765,-1.17644 l 2.63688,-3.80501 -3.2665,-6.34039 c -3.14291,-6.10051 -3.26544,-6.77858 -3.23878,-17.92245 0.0251,-10.51047 0.28327,-12.13328 2.78982,-17.53987 5.21385,-11.24621 10.92001,-16.53139 17.85574,-16.53845 8.0442,-0.008 13.30217,8.74645 13.3178,22.1744 l 0.009,7.67813 2.63366,-2.17813 c 1.44852,-1.19798 6.88373,-5.75526 12.07825,-10.1273 l 9.44459,-7.94917 -2.00406,-5.05083 c -2.68971,-6.77887 -2.82135,-22.48079 -0.26006,-31.01901 C 353.84475,235.02319 361.05411,227 367.94301,227 c 7.72312,0 15.6093,13.46465 16.77944,28.6488 l 0.55092,7.1488 5.85348,-3.1488 c 4.16667,-2.2414 5.68384,-3.58106 5.26479,-4.6488 -5.4231,-13.81792 5.64434,-34.9427 21.97394,-41.94238 9.04759,-3.87825 16.49722,-1.58529 18.69632,5.75463 1.22363,4.08413 0.86807,17.28439 -0.55365,20.55408 -0.69681,1.60255 -0.54273,1.72256 1.09012,0.84911 1.0459,-0.55947 4.67268,-1.56222 8.05953,-2.22832 l 6.1579,-1.21109 1.23319,-6.53569 c 3.56383,-18.88755 18.35081,-34.55948 33.94192,-35.97323 4.97014,-0.45068 5.95495,-0.21749 8.56257,2.02746 2.82423,2.43142 2.94635,2.88261 2.94236,10.87107 -0.004,7.36043 -0.35031,8.96018 -2.9663,13.68977 -3.64426,6.58866 -10.08585,12.4165 -18.13115,16.40363 l -6.1016,3.02387 6.85882,3.43133 c 11.27689,5.6416 18.66459,16.05702 18.78852,26.48871 0.11171,9.40301 -3.62038,12.46689 -14.03543,11.52249 -13.35022,-1.21056 -24.24728,-10.33479 -29.80688,-24.95762 l -1.02735,-2.70215 -14.78724,5.03633 c -8.13297,2.76999 -19.24473,7.13103 -24.6928,9.69121 l -9.90556,4.65488 5.90556,1.19584 c 10.37465,2.10079 17.33149,5.27827 22.53283,10.29169 4.3521,4.19488 4.87274,5.15783 4.87274,9.01246 0,3.63495 -0.55083,4.83527 -3.49175,7.60891 -6.64405,6.26614 -20.31783,9.95951 -33.9584,9.17234 -11.9515,-0.68969 -20.07743,-3.40928 -28.45902,-9.52469 l -6.82308,-4.97828 -10.38387,8.62088 c -12.74589,10.58186 -31.91476,29.55271 -38.11549,37.72172 l -4.60667,6.06896 5.16914,-1.78631 c 6.53137,-2.25707 18.63243,-2.43907 22.68916,-0.34126 3.74377,1.93598 4.97998,4.32108 4.97998,9.60818 0,9.27491 -9.94247,21.79737 -22,27.70881 -8.3763,4.10665 -20.03181,5.92656 -28.85548,4.50555 l -6.28357,-1.01194 -4.06835,8.08952 c -2.23759,4.44924 -5.52899,11.55182 -7.31422,15.78351 l -3.24587,7.69399 2.63375,-1.93829 c 3.70952,-2.73 13.38199,-5.95037 17.85876,-5.94594 5.56397,0.006 10.01616,3.09973 10.84917,7.54006 1.72437,9.19166 -1.45441,18.17852 -9.15314,25.87725 C 286.29783,451.54428 275.69411,456 265.8655,456 c -4.66192,0 -4.79541,0.0861 -5.81292,3.75 -1.69795,6.11404 -1.41792,6.27344 5.19742,2.95859 4.3989,-2.20423 8.09009,-3.25101 12.4628,-3.53432 5.83377,-0.37797 6.39808,-0.21723 9.25,2.63468 3.78099,3.78099 4.064,9.37166 0.90219,17.82235 -4.30051,11.49415 -14.81276,19.44311 -30.17951,22.82059 l -2.81452,0.6186 0.64105,10.71476 c 0.35258,5.89311 0.81546,11.27197 1.02863,11.95302 0.22753,0.72691 2.36395,-0.73037 5.17347,-3.5289 9.9098,-9.87102 20.71841,-11.13971 24.63254,-2.8913 3.82395,8.05838 1.20946,22.49996 -5.94147,32.81876 -2.59629,3.74644 -11.07582,11.25321 -13.69985,12.12821 -0.87795,0.29276 -0.5646,2.41634 1.15368,7.81844 3.87784,12.19162 10.90464,30.56514 15.34139,40.11434 l 4.16289,8.95977 2.14979,-6.3288 c 3.23856,-9.534 5.95744,-14.20408 11.49124,-19.73787 8.4648,-8.4648 15.89852,-8.86154 20.44058,-1.09092 1.64675,2.81729 2.11558,5.66426 2.40347,14.59529 0.59905,18.58376 -3.06163,29.2145 -14.13689,41.05399 l -6.03191,6.44812 7.73417,11.37079 c 4.2538,6.25394 10.1556,13.99452 13.11513,17.2013 l 5.38096,5.83051 0.0451,-7.29966 C 330.02009,672.64795 333.61129,667 340.25575,667 c 6.86099,0 19.47247,10.08651 25.00663,20 5.48439,9.82436 7.53438,22.30566 5.50908,33.54192 l -0.72855,4.04191 10.72855,6.47631 10.72854,6.47631 -2.2657,-4.54255 c -3.04015,-6.09527 -4.49132,-15.32569 -3.17688,-20.20714 1.46175,-5.42853 4.62768,-7.18886 11.72459,-6.51914 18.56459,1.75188 37.29436,21.00309 40.55,41.67893 l 1.0458,6.64162 12.18718,2.78797 c 11.78373,2.69567 34.84338,6.60378 38.93501,6.59863 1.27315,-0.002 0.3838,-0.81518 -2.44716,-2.23864 -6.41994,-3.22809 -15.61005,-12.58628 -18.53902,-18.8781 -2.90427,-6.23874 -3.34741,-14.22291 -0.97721,-17.60684 3.71704,-5.30682 15.35814,-4.78497 27.96339,1.25355 13.41584,6.42684 23.86223,20.39102 26.02039,34.78269 0.67591,4.50728 0.84855,4.71257 3.96305,4.71257 3.20215,0 3.27595,-0.10402 4.43418,-6.25 2.76628,-14.67882 12.37579,-27.13853 25.87464,-33.54911 6.25842,-2.97211 8.92688,-3.64965 15.79333,-4.01005 7.82473,-0.41069 8.39897,-0.29719 10.83845,2.14229 2.09547,2.09547 2.57596,3.52864 2.57596,7.68334 0,10.17802 -8.30021,22.10198 -20.0918,28.86357 -4.93763,2.83135 -5.15833,3.10201 -2.53654,3.11058 6.28301,0.0205 40.44065,-5.96852 48.78991,-8.55461 1.13446,-0.35139 1.88583,-2.16766 2.36848,-5.72533 2.91584,-21.49302 22.29127,-41.9634 41.15176,-43.47734 5.88888,-0.4727 6.36379,-0.34159 9.26266,2.55728 2.65269,2.65269 3.05213,3.75783 3.02971,8.38246 -0.0142,2.9298 -1.06096,8.36442 -2.32614,12.07692 -1.26517,3.7125 -2.09583,6.75 -1.8459,6.75 0.75524,0 11.41716,-6.15539 15.82551,-9.13646 l 4.12764,-2.79126 -0.94809,-4.78614 c -1.28787,-6.50146 -0.18497,-19.20144 2.22746,-25.64923 3.68815,-9.85746 12.0365,-19.38289 21.1821,-24.16868 5.4268,-2.83979 9.39402,-3.12958 12.553,-0.91695 3.5359,2.47665 4.61003,5.40482 5.18813,14.1433 l 0.54211,8.19457 5.73536,-6.73564 c 5.18478,-6.08904 16.47478,-21.87487 18.9421,-26.48509 0.80729,-1.50845 -0.0651,-2.92637 -4.92253,-8.00089 -9.75831,-10.19441 -13.45134,-18.48283 -14.82487,-33.2721 -0.78051,-8.40409 0.89357,-19.7541 3.56048,-24.13948 6.87023,-11.29719 26.36471,3.78106 32.01424,24.76182 l 1.20293,4.46731 2.02778,-3.95257 c 4.04106,-7.87683 11.15095,-25.33119 15.87408,-38.96993 l 4.82657,-13.93743 -2.90658,-1.4077 c -4.63686,-2.24569 -13.8713,-12.64202 -16.81994,-18.93623 -2.33756,-4.98981 -2.7084,-7.05842 -2.70897,-15.11108 -6.5e-4,-9.2728 0.0193,-9.34772 3.26513,-12.25 6.01019,-5.3741 15.07802,-3.14217 23.35034,5.74738 l 4.61613,4.96055 0.62788,-8.06404 c 1.17546,-15.09672 1.00951,-16.44423 -2.11013,-17.13372 -11.67121,-2.57955 -19.68743,-7.26312 -25.38504,-14.83151 -5.28163,-7.01582 -7.54024,-16.7451 -5.43046,-23.39244 1.95405,-6.15667 13.57562,-6.75403 24.46419,-1.2575 l 6.28715,3.17374 -0.72265,-3.3113 c -1.49776,-6.86296 -1.50471,-6.86858 -9.00113,-7.26879 -9.83363,-0.52499 -17.37108,-3.638 -24.267,-10.0224 -6.90723,-6.39488 -10.44994,-13.03027 -11.0038,-20.60977 -0.74238,-10.15961 3.78912,-14.57935 14.06379,-13.71691 2.94807,0.24745 7.90832,1.72474 11.3268,3.37341 l 6.08185,2.93316 -2.42095,-5.94942 c -2.62521,-6.45136 -9.94679,-21.39521 -11.32348,-23.112 -0.5891,-0.73463 -3.05591,-0.76298 -8.01226,-0.0921 -14.59423,1.97554 -29.06525,-2.70677 -39.32606,-12.72452 -9.99225,-9.75556 -13.41784,-21.21239 -8.16755,-27.31622 2.23422,-2.59743 3.04484,-2.83168 10.91803,-3.15501 5.55889,-0.22829 10.26487,0.16673 13.5866,1.14047 2.79508,0.81935 5.08197,1.25003 5.08197,0.95706 0,-0.89586 -9.01091,-11.30925 -16.96592,-19.60655 -7.19609,-7.50571 -24.68631,-23.29395 -31.96608,-28.85544 l -3.432,-2.62194 -4.068,3.29967 c -15.20487,12.33308 -40.28674,15.29038 -58.27184,6.87059 -12.75589,-5.97172 -14.02409,-16.40166 -2.87957,-23.68224 6.44175,-4.20831 12.3755,-6.53715 20.50598,-8.04804 l 6.42256,-1.1935 -10.47821,-4.67709 c -11.36404,-5.07248 -36.12735,-13.7001 -39.3822,-13.72089 -1.52779,-0.01 -2.45907,1.23665 -3.8499,5.15262 -2.35274,6.62427 -10.18576,14.97845 -17.31405,18.466 -3.59088,1.75685 -7.66331,2.80316 -12.16378,3.12517 -6.16573,0.44115 -7.02678,0.25922 -9.71129,-2.05191 -2.69778,-2.32254 -2.94145,-3.0691 -2.89515,-8.87036 0.0925,-11.58844 7.02851,-21.46971 19.41513,-27.65938 l 5.91847,-2.95749 -6.28415,-3.09367 c -8.23086,-4.05204 -14.46839,-9.64926 -18.12954,-16.26844 -2.61599,-4.72959 -2.96262,-6.32934 -2.9663,-13.68977 -0.004,-7.97805 0.12112,-8.44222 2.92617,-10.85715 2.54685,-2.19264 3.66111,-2.46992 8.51446,-2.11886 15.26398,1.10409 30.77874,16.95235 34.48016,35.2213 l 1.23369,6.08907 5.05959,1.64615 c 2.78278,0.90538 6.38743,1.93778 8.01033,2.29423 l 2.95074,0.64809 -1.30434,-6.29423 C 613.56523,220.2357 618.2804,211 628.01227,211 c 8.45784,0 22.43117,10.85052 27.31702,21.21211 3.04538,6.45846 4.43198,16.16534 2.9262,20.48484 -0.97397,2.79394 -0.80577,3.02045 4.86784,6.55528 l 5.87667,3.66135 0.0148,-4.70679 c 0.0317,-10.10633 4.19802,-22.14686 9.49677,-27.44561 11.49199,-11.492 26.99835,6.8508 26.83088,31.73882 -0.0388,5.76261 -0.65082,10.57399 -1.7015,13.37573 -0.90251,2.40665 -1.64093,4.94008 -1.64093,5.62985 0,0.68977 2.47044,3.11933 5.48986,5.39901 3.01942,2.27969 8.37845,6.84703 11.90896,10.14964 l 6.4191,6.00475 0.0656,-7.00393 c 0.0754,-8.05107 0.68451,-11.12493 3.2008,-16.1523 4.08514,-8.16178 12.9209,-9.233 19.905,-2.4132 11.65523,11.38102 15.17914,32.00556 8.06572,47.20659 l -3.04561,6.50832 2.18257,3.14777 c 1.20041,1.73127 2.9539,4.16451 3.89663,5.40719 l 1.71407,2.25943 2.98687,-6.3828 C 770.08749,324.31458 778.63191,317 786.55895,317 c 8.17718,0 12.14052,10.24101 11.24884,29.06625 -0.52683,11.12255 -3.13328,18.4772 -9.56922,27.00154 l -4.18684,5.54543 3.01357,5.94339 c 1.65746,3.26886 4.94611,10.10422 7.30812,15.18968 l 4.29455,9.2463 3.19652,-4.93307 c 7.56492,-11.67465 20.26201,-17.30495 26.6321,-11.80952 3.17126,2.73582 4.44796,7.80608 4.47955,17.7899 0.052,16.43974 -6.27151,29.54557 -18.79919,38.96226 l -3.32304,2.49784 1.69156,7.5 c 0.93036,4.125 1.80773,7.632 1.94971,7.79333 0.14198,0.16134 2.99126,-2.43977 6.33172,-5.78023 6.67617,-6.67617 11.08555,-9.0131 17.00612,-9.0131 7.92641,0 11.96915,6.90802 10.77641,18.4141 -0.81302,7.84293 -4.36427,15.31518 -9.72824,20.46937 -4.69571,4.51206 -13.01019,8.93865 -18.44653,9.82085 -3.89034,0.63131 -4.04859,1.27865 -4.78757,19.58357 l -0.43551,10.78789 4.90677,-4.58972 c 5.80439,-5.42932 13.92356,-9.46267 19.07589,-9.47629 7.92937,-0.021 11.53741,7.75873 9.68025,20.87267 -1.84675,13.04042 -9.09626,23.17848 -20.78463,29.0662 -6.20778,3.127 -15.48861,5.37005 -20.18211,4.87774 l -3.06365,-0.32136 -4.90351,14.87268 c -2.69693,8.17998 -5.42945,15.50641 -6.07227,16.28096 -0.64282,0.77455 1.18276,-0.17418 4.05684,-2.1083 6.46906,-4.35335 16.52839,-7.55036 23.7571,-7.55036 4.76881,0 5.86421,0.39262 8.5284,3.05681 2.89559,2.8956 3.02819,3.37249 2.51408,9.04216 -1.33778,14.75334 -14.80533,32.49468 -30.39495,40.0405 -8.36795,4.05031 -22.78986,7.48406 -26.49472,6.30818 -1.40915,-0.44724 -2.9586,1.23421 -7.13283,7.7405 -2.93294,4.57152 -5.63997,8.83007 -6.01563,9.46344 -0.47296,0.79744 0.75796,0.71792 4.0026,-0.25857 2.57709,-0.77559 8.34889,-1.69174 12.82623,-2.0359 13.43245,-1.0325 19.48456,2.19198 19.48456,10.3811 0,5.39149 -1.89897,9.17038 -7.75368,15.42953 -5.24496,5.60729 -12.43139,9.96619 -20.17782,12.23879 -6.99966,2.05352 -21.10145,2.06981 -27.96244,0.0323 -5.94055,-1.76416 -5.70576,-1.87472 -16.52757,7.78248 l -4.9215,4.39187 9.7458,1.59269 c 11.59604,1.89507 21.21993,6.18839 23.84721,10.63851 4.44475,7.52857 0.67895,15.43258 -9.64145,20.23638 -8.78103,4.08727 -18.89834,5.54367 -28.32745,4.07776 -9.50134,-1.47714 -14.94489,-3.88569 -20.63391,-9.12964 l -4.50146,-4.1493 -9.29389,5.60285 c -5.11163,3.08157 -14.36743,8.17116 -20.56843,11.3102 -6.20101,3.13904 -11.27655,5.96266 -11.27898,6.27472 -0.002,0.31206 2.36749,1.31506 5.26651,2.22889 10.15378,3.2007 19.34502,10.67928 24.83057,20.20373 5.24253,9.1025 3.11038,16.20201 -5.51839,18.37475 -9.66848,2.43455 -25.30665,0.45223 -35.40381,-4.48785 -7.69533,-3.76497 -17.33066,-13.17102 -21.26465,-20.75862 l -3.27825,-6.32287 -9.21734,2.34053 c -9.18876,2.33328 -29.18405,5.51993 -43.41907,6.9197 -5.75711,0.56611 -6.8853,0.90804 -4.85485,1.4714 5.42481,1.50514 14.73938,7.25419 19.62099,12.11028 6.74143,6.70619 11.29114,15.39287 11.96723,22.84882 0.48063,5.30046 0.293,6.0684 -2.05679,8.41819 C 585.39614,828.69477 584.2777,829 578.202,829 c -20.49859,0 -40.95455,-17.24295 -46.59284,-39.27451 -0.94759,-3.70274 -1.81402,-5.20121 -2.97323,-5.14216 -6.2154,0.31661 -6.12243,0.24537 -7.39459,5.66667 -2.90152,12.36486 -12.68631,25.37045 -24.43767,32.48166 -5.29985,3.20716 -18.74393,7.30513 -23.71363,7.2283 -1.42452,-0.022 -3.81122,-0.70284 -5.30377,-1.51293 z m 15.00434,-2.8791 c 18.13246,-4.82676 32.77305,-20.22799 36.4255,-38.31793 L 520.2761,782 h 6.1253 6.1253 l 1.16165,4.89028 c 1.79006,7.53575 5.21916,14.74997 9.83884,20.6992 5.51116,7.0973 10.34851,10.90032 19.36179,15.22184 6.13499,2.94149 8.54642,3.55512 14.20906,3.61571 8.33483,0.0892 10.16747,-1.27196 10.08168,-7.48784 -0.0802,-5.81128 -5.19671,-15.86094 -11.0606,-21.72483 -5.12648,-5.12649 -14.11729,-10.36578 -20.86912,-12.16127 -3.07158,-0.81681 -4.25,-1.6459 -4.25,-2.99014 0,-1.57954 1.09307,-1.96279 7.25,-2.54198 14.72076,-1.3848 35.53973,-4.59331 45.56371,-7.02204 C 609.48624,771.12452 614.94594,770 615.94636,770 c 1.22371,0 2.73335,1.88161 4.61329,5.75 1.67147,3.43943 5.43562,8.36504 9.36735,12.2577 10.27519,10.17311 19.94823,13.97068 35.573,13.96569 10.06342,-0.003 13.33073,-1.13612 15.33564,-5.31748 1.20193,-2.50672 1.06784,-3.33291 -1.33962,-8.25358 -4.89527,-10.00556 -17.8919,-20.00723 -28.65195,-22.04937 -4.4972,-0.85351 -7.24851,-2.35234 -6.20143,-3.37835 0.47155,-0.46206 6.25736,-3.53328 12.85736,-6.82495 6.6,-3.29166 16.87833,-8.94692 22.84073,-12.56725 5.9624,-3.62032 11.38358,-6.58241 12.04705,-6.58241 0.66348,0 2.9284,1.76356 5.03316,3.91903 2.10476,2.15547 6.58358,5.19297 9.95295,6.75 5.56907,2.57355 7.12633,2.82838 17.12611,2.80252 12.65788,-0.0327 20.16619,-2.30586 26.35731,-7.9796 6.33462,-5.80524 4.26973,-12.80144 -5.21333,-17.66368 -4.62816,-2.37299 -15.42763,-4.78108 -21.64398,-4.82622 -4.71372,-0.0342 -7.50155,-1.12848 -6.87188,-2.6973 0.20453,-0.50961 3.97188,-4.00904 8.37188,-7.77651 4.4,-3.76747 8.99931,-7.74361 10.22068,-8.83587 1.67829,-1.50086 2.54716,-1.71497 3.5573,-0.87663 C 741.32041,701.5108 751.86316,704 757,704 c 11.20937,0 23.06141,-5.04074 31.65958,-13.465 9.59054,-9.39657 10.82887,-17.43318 3.17471,-20.60364 -4.2928,-1.77813 -19.99536,-0.66081 -27.29963,1.94252 -3.28094,1.16937 -6.31844,2.12612 -6.75,2.12612 -1.44126,0 -0.80946,-1.90428 2.06394,-6.22076 1.56673,-2.35358 4.94532,-7.54174 7.50797,-11.52924 l 4.65937,-7.25 h 5.28193 c 13.32965,0 26.95982,-6.09662 37.81429,-16.91392 7.98797,-7.96061 11.59891,-13.8445 14.39137,-23.45023 2.07647,-7.14281 0.93639,-10.93824 -3.77949,-12.5822 -5.97759,-2.0838 -19.94522,2.06267 -28.7282,8.52833 -8.62437,6.3489 -9.49282,6.01959 -5.81473,-2.20486 1.19962,-2.68242 4.28534,-11.17712 6.85716,-18.87712 l 4.67604,-14 7.93031,-0.59854 c 11.23594,-0.84804 18.72409,-4.40274 26.27218,-12.47167 7.20514,-7.70232 9.51197,-13.65407 9.55382,-24.64944 0.0253,-6.6364 -0.27855,-8.02794 -2.16506,-9.91667 -1.27038,-1.27186 -3.43868,-2.19701 -5.14921,-2.19701 -4.6828,0 -13.27469,4.8055 -19.32697,10.80971 -6.69266,6.6395 -8.34398,7.03198 -7.46228,1.77362 0.34583,-2.0625 0.92295,-10.3409 1.28249,-18.39644 l 0.65371,-14.64644 3.59835,-0.5982 c 5.79456,-0.96329 14.26327,-5.39932 18.93087,-9.91625 6.4409,-6.23299 8.43471,-10.77014 8.96312,-20.39661 0.44275,-8.06596 0.3991,-8.25517 -2.59573,-11.25 -3.57018,-3.57018 -5.14136,-3.70617 -11.19991,-0.96938 -5.15941,2.33062 -11.10745,7.7021 -14.65971,13.23871 -1.34637,2.09847 -2.94302,3.65037 -3.54811,3.44867 -0.6051,-0.2017 -1.97091,-4.39363 -3.03513,-9.31539 -3.23829,-14.97631 -3.38258,-13.58626 1.7593,-16.94867 14.4881,-9.47415 21.75824,-31.28788 16.36508,-49.10267 -3.12595,-10.32568 -20.25727,-2.25918 -27.51214,12.95446 C 800.41245,412.3583 799.12073,414 798.4988,414 c -0.62192,0 -2.18547,-2.5875 -3.47455,-5.75 -1.28907,-3.1625 -4.97188,-11.03058 -8.18401,-17.48462 C 781.11309,379.25799 780.03687,376 781.96274,376 c 1.59385,0 9.12445,-11.83998 11.36416,-17.86729 1.66052,-4.46864 2.07732,-7.80266 2.01681,-16.13271 -0.0884,-12.17627 -1.72407,-18.44823 -5.55732,-21.31016 -2.59133,-1.93471 -2.83096,-1.94453 -7.15486,-0.29322 -2.57309,0.98267 -6.23447,3.6187 -8.61814,6.20468 -3.86846,4.19678 -10.01082,15.33034 -10.0126,18.1487 -0.002,3.15196 -3.82291,0.67867 -7.50079,-4.85529 -2.2,-3.31025 -4.42195,-6.62494 -4.93767,-7.36597 -0.6472,-0.92996 0.11134,-3.31153 2.44868,-7.68804 2.91709,-5.46205 3.44405,-7.53219 3.80273,-14.93898 0.49822,-10.28798 -1.14745,-16.85588 -6.26529,-25.00494 -2.39972,-3.82104 -4.88738,-6.32916 -7.82123,-7.88556 -4.15934,-2.20653 -4.41188,-2.22565 -7.60237,-0.57578 -5.26168,2.72092 -7.55868,8.98098 -7.61289,20.74755 -0.0245,5.32565 -0.29667,9.93506 -0.60474,10.24312 -0.30807,0.30807 -4.35072,-2.86948 -8.98367,-7.06122 -4.63295,-4.19174 -11.01105,-9.61495 -14.17355,-12.05157 -3.1625,-2.43662 -5.75,-4.89656 -5.75,-5.46653 0,-0.56997 0.95948,-4.19519 2.13218,-8.05605 4.23492,-13.94256 0.94463,-31.50083 -7.56786,-40.38496 -5.44674,-5.68452 -8.38364,-5.82176 -13.57125,-0.63414 -4.48842,4.48841 -7.72948,13.80838 -8.66962,24.93024 -0.33931,4.01396 -0.97567,7.29812 -1.41413,7.29812 -0.43847,0 -3.88539,-1.8578 -7.65982,-4.12844 l -6.8626,-4.12844 0.0566,-9.62156 c 0.0486,-8.27157 -0.28881,-10.32311 -2.40484,-14.62156 -6.32599,-12.85041 -22.33911,-22.62065 -30.18901,-18.41951 -4.90533,2.62526 -6.12109,12.20824 -2.79965,22.06778 1.12747,3.34684 1.80558,6.32953 1.50692,6.6282 -0.29867,0.29866 -4.70864,-0.69714 -9.79995,-2.21289 -5.09131,-1.51575 -9.94098,-2.93513 -10.77706,-3.15418 -0.96857,-0.25376 -1.93568,-2.5848 -2.66536,-6.42438 -1.59724,-8.40467 -6.35813,-18.04827 -11.76248,-23.82595 -5.16238,-5.519 -14.18941,-10.75764 -20.19085,-11.71731 -3.38287,-0.54094 -4.47625,-0.24684 -6.93044,1.86416 -2.62462,2.2576 -2.90579,3.08657 -2.83231,8.35025 0.0921,6.59521 2.54846,13.02526 6.97852,18.2676 3.5429,4.1925 13.41588,10.69419 18.59629,12.24628 4.67563,1.40085 5.21526,4.3609 1.07677,5.90648 -10.58382,3.95271 -18.90483,10.74525 -22.28502,18.19155 -2.30815,5.08466 -2.5304,12.47966 -0.46374,15.43023 2.10974,3.01208 6.06661,3.58071 12.74832,1.83205 12.68703,-3.32031 21.27994,-12.24089 25.33869,-26.30492 0.4696,-1.6272 2.17375,-1.22372 20.77348,4.91836 16.56194,5.46915 38.30494,15.29265 38.30494,17.3062 0,0.86457 -2.06223,1.52257 -6.08334,1.94102 -14.90007,1.55058 -29.41359,9.10018 -31.20338,16.23128 -1.54327,6.14886 9.5502,13.2675 24.03354,15.42227 7.40049,1.10101 9.68433,1.05464 16.76541,-0.34041 9.52758,-1.87704 18.69714,-6.10164 24.19679,-11.14795 2.13163,-1.95591 4.31697,-3.55621 4.8563,-3.55621 3.80617,0 36.69981,30.14926 49.37174,45.25257 11.16165,13.30324 12.2623,17.02422 3.82286,12.92403 -5.76723,-2.80194 -16.78999,-4.70907 -21.78832,-3.76977 -4.55134,0.85531 -8.64727,4.5621 -8.61631,7.79772 0.0601,6.2799 6.84204,16.21479 15.34876,22.48439 8.47111,6.24336 17.36533,8.74105 28.49377,8.00166 4.74953,-0.31557 9.60319,-0.86581 10.78591,-1.22276 1.84439,-0.55666 2.66117,0.26432 5.73967,5.76921 1.9741,3.53002 5.54522,11.10828 7.93581,16.84058 6.87074,16.47504 6.81179,17.97229 -0.51303,13.02883 -2.38193,-1.60754 -7.24364,-3.90408 -10.80381,-5.10341 -5.48112,-1.84646 -7.04793,-2.00837 -10.22472,-1.05658 -4.56286,1.36707 -5.78432,3.4347 -5.78432,9.79144 0,6.69063 3.85081,14.01111 10.62902,20.20601 6.3955,5.84513 12.20626,8.01398 23.53036,8.78265 l 7.65939,0.51991 1.59061,6.33228 C 799.22958,466.825 799.42001,470 798.03442,470 c -0.53106,0 -3.79356,-1.55082 -7.25,-3.44626 -7.95802,-4.36404 -14.47261,-5.907 -18.7073,-4.43078 -5.6112,1.95608 -6.50103,6.99628 -2.92333,16.55854 4.02591,10.7602 14.78417,18.84579 27.85656,20.93615 l 3.98965,0.63797 -0.0876,10.62219 c -0.12224,14.82157 -0.98264,20.51718 -3.16239,20.93411 -0.9625,0.1841 -1.75,-0.1752 -1.75,-0.79846 0,-0.62325 -2.29708,-3.56201 -5.10463,-6.53057 -10.6054,-11.21365 -20.07383,-10.78295 -22.36016,1.01711 -0.80822,4.17136 1.02835,13.04773 3.93121,19 2.78854,5.71786 11.33304,14.76008 15.6292,16.53961 2.01216,0.83346 2.90438,1.90774 2.90438,3.497 C 791,572.02299 768.21165,628 765.16393,628 c -0.446,0 -1.323,-2.75357 -1.94887,-6.11904 -3.02034,-16.24105 -16.2338,-32.59898 -24.63024,-30.4916 -3.88325,0.97463 -5.77543,6.22298 -6.34938,17.61133 -0.83019,16.47239 3.06585,27.16588 14.01456,38.4659 3.7125,3.83162 6.75,7.58318 6.75,8.3368 0,2.27177 -14.52789,23.17244 -22.6159,32.53656 -7.16933,8.30048 -10.30887,10.29194 -9.54163,6.05242 0.18835,-1.0408 0.41335,-5.57187 0.5,-10.06904 0.13289,-6.89775 -0.17098,-8.61827 -1.9428,-11 -1.15518,-1.55283 -3.07548,-2.96815 -4.26735,-3.14515 -9.04309,-1.34299 -23.8917,12.94287 -28.29102,27.21884 -1.81761,5.8982 -2.04317,8.456 -1.5575,17.66211 0.48953,9.27955 0.33664,10.96839 -1.10795,12.23823 C 681.62909,729.53606 659.72293,742 658.33505,742 c -2.34478,0 -2.32734,-1.85571 0.0439,-4.6738 2.9633,-3.52169 5.04374,-8.4072 6.52873,-15.33146 3.08201,-14.37095 -6.59536,-17.81861 -22.92891,-8.16867 -13.57879,8.02243 -24.88716,25.30137 -24.98329,38.17393 -0.0144,1.925 -0.35674,4.00636 -0.76082,4.62525 -1.50445,2.30422 -43.264,9.58391 -60.73469,10.58752 -7.31254,0.42007 -6.45414,-1.78877 2.09028,-5.37876 8.37951,-3.52069 17.44256,-10.34167 20.79299,-15.6491 6.43402,-10.19215 6.96148,-18.0115 1.42462,-21.11927 -6.23647,-3.50043 -25.1082,3.11819 -33.79931,11.85396 -7.61882,7.65798 -10.66797,14.27039 -13.52499,29.3304 -0.48546,2.55899 -0.86522,2.75 -5.46746,2.75 -5.62337,0 -6.4065,-0.84762 -7.30639,-7.90806 -0.30901,-2.42444 -2.14945,-7.59944 -4.08987,-11.5 -5.87157,-11.80278 -15.2167,-19.8393 -27.47521,-23.62781 -8.93283,-2.76071 -13.6078,-2.5919 -16.80657,0.60687 -2.23446,2.23446 -2.48471,3.11802 -1.91182,6.75 1.69098,10.72025 10.60244,21.37467 22.74527,27.19397 3.99962,1.91677 7.84723,3.48503 8.55025,3.48503 0.70301,0 1.27821,0.93575 1.27821,2.07946 0,1.72955 -0.46274,1.9908 -2.75,1.5526 -1.5125,-0.28976 -5.675,-0.80859 -9.25,-1.15294 -9.97323,-0.96066 -29.2773,-4.2893 -41.64149,-7.18034 l -11.14149,-2.60514 -0.66916,-5.04435 c -2.29573,-17.3061 -13.91749,-32.89319 -30.02266,-40.26638 -7.89766,-3.61567 -13.99259,-3.75516 -16.73109,-0.38291 -3.044,3.74845 -1.93013,13.05168 2.67969,22.38125 3.81531,7.72158 4.07298,8.61875 2.47534,8.61875 -1.58515,0 -24.31557,-13.64244 -26.20024,-15.72496 -1.32094,-1.45963 -1.46165,-2.59307 -0.71937,-5.79479 3.17452,-13.69303 -1.10299,-28.92866 -11.23416,-40.01377 -9.5488,-10.44791 -17.7776,-13.09386 -22.1965,-7.13722 -1.8186,2.45145 -2.08692,4.15403 -2.00935,12.75 0.0591,6.55209 -0.28084,9.92074 -1.00121,9.92074 -2.86699,0 -28.79003,-33.97123 -30.19515,-39.56967 -0.4049,-1.61326 0.97194,-3.61583 5.85761,-8.51966 6.86088,-6.88638 10.75275,-13.7672 13.21878,-23.37077 3.80576,-14.82092 0.064,-33.5399 -6.70427,-33.5399 -3.2636,0 -9.93554,4.38192 -13.58146,8.91989 -4.35642,5.42229 -8.11114,13.76584 -9.51198,21.13702 -0.66895,3.52002 -1.64379,5.94309 -2.391,5.94309 -2.39901,0 -16.00863,-31.74011 -22.14936,-51.6563 C 264.40916,569.75773 263,564.77003 263,564.25991 c 0,-0.51011 2.40496,-2.58383 5.34435,-4.60827 12.76676,-8.79281 20.29691,-25.75297 16.489,-37.13818 -1.91943,-5.73886 -5.51044,-7.2904 -11.54207,-4.9869 -4.48336,1.71221 -10.80936,7.2057 -14.93951,12.97344 -3.59302,5.01764 -4.3983,2.50475 -4.6368,-14.46922 L 253.5,500.73162 l 6.84102,-1.8872 c 8.73123,-2.40864 11.82481,-4.03831 17.42486,-9.17924 5.75244,-5.28082 9.2114,-12.50303 9.22435,-19.26019 0.0106,-5.55427 -1.4888,-7.74985 -6.0739,-8.89374 -3.35734,-0.83759 -13.93079,2.7146 -19.51358,6.55566 C 257.53499,470.728 255,471.71588 255,470.56205 c 0,-0.60167 2.97958,-13.6781 3.57468,-15.68812 0.37816,-1.27728 2.24503,-1.72704 8.70337,-2.09677 10.09243,-0.57778 17.96514,-4.01939 24.54773,-10.73119 10.0424,-10.23953 11.99406,-24.13416 3.86691,-27.52991 -4.95871,-2.07188 -15.29051,0.73653 -22.37597,6.08227 -3.61731,2.72914 -5.31672,3.04382 -5.31672,0.98449 0,-2.32674 6.77198,-18.43744 11.80435,-28.08282 3.85816,-7.39481 5.05236,-8.92717 6.69565,-8.59164 1.1,0.22459 6.725,0.44959 12.5,0.5 8.67463,0.0757 11.55012,-0.30709 16.54054,-2.20195 7.55455,-2.86846 14.78515,-8.2748 19.70078,-14.73031 7.13528,-9.37048 7.39837,-16.33192 0.74796,-19.79096 -4.7066,-2.44802 -15.33169,-1.59062 -22.83017,1.84229 -5.84173,2.67444 -8.15911,3.07591 -8.15911,1.41353 0,-2.19993 12.80787,-17.84316 22.95374,-28.03516 10.1202,-10.16621 32.20584,-29.61005 34.7849,-30.62406 0.68125,-0.26785 3.38125,1.29982 6,3.48372 14.4023,12.01073 34.38334,15.09457 52.60978,8.11971 11.02439,-4.21879 14.64657,-10.01892 10.06825,-16.12206 -4.24537,-5.65928 -16.44603,-10.99425 -28.16667,-12.31641 -4.21559,-0.47554 -6.25,-1.14237 -6.25,-2.04858 0,-2.37225 24.05235,-13.09325 43,-19.16665 13.25187,-4.24771 14.02217,-4.3738 14.68535,-2.40385 4.93248,14.65174 13.75095,23.24474 26.87237,26.18532 20.78557,4.65814 15.72159,-23.38939 -6.05772,-33.55148 -2.75,-1.28313 -5.7875,-2.57276 -6.75,-2.86583 -3.55431,-1.08226 -1.61525,-3.52089 5.53373,-6.95941 9.32629,-4.48577 15.93976,-10.33597 19.12953,-16.92178 3.45715,-7.13785 4.15068,-12.42898 2.23126,-17.02281 -2.11051,-5.05116 -5.3778,-6.20179 -12.0788,-4.25376 -14.25403,4.14376 -25.95619,19.10611 -28.41045,36.32552 l -0.6751,4.73661 -8.49009,2.24515 C 431.95793,244.45587 432,244.45033 432,242.58982 c 0,-0.9131 0.71621,-2.75327 1.59159,-4.08925 2.12332,-3.2406 2.96235,-13.29209 1.48356,-17.77287 -0.64691,-1.96014 -2.34116,-4.3272 -3.765,-5.26014 -8.51894,-5.58182 -27.534,7.44504 -31.79081,21.77927 -1.7355,5.84407 -1.99032,14.00461 -0.52293,16.74647 0.54803,1.024 0.75425,2.45691 0.45828,3.18426 -0.60178,1.47882 -13.0392,8.82244 -14.94202,8.82244 -0.79408,0 -1.44001,-2.6122 -1.85247,-7.49157 -1.10499,-13.07209 -6.27428,-25.06256 -12.01524,-27.87006 -3.63553,-1.77788 -5.67466,-1.21582 -9.63444,2.6556 -8.998,8.79722 -12.75258,28.54234 -7.93048,41.70603 1.10811,3.025 2.24756,6.19823 2.53211,7.05161 0.34661,1.03953 -1.56674,3.18448 -5.7974,6.49916 -3.47311,2.72115 -9.9897,8.21043 -14.48132,12.19839 -4.49161,3.98796 -8.62489,7.25084 -9.18506,7.25084 -0.65762,0 -0.81581,-3.12851 -0.44646,-8.82956 0.69307,-10.69759 -1.20955,-17.73691 -5.8492,-21.64092 -3.7077,-3.11983 -5.604,-3.168 -9.95483,-0.2529 -7.89136,5.28729 -13.12843,17.53779 -13.21454,30.91136 -0.0456,7.07727 0.28967,8.42786 3.81678,15.37683 4.36523,8.60017 4.49696,7.81672 -2.88167,17.13788 -4.16631,5.26314 -6.61845,6.62928 -6.61845,3.68729 0,-2.41179 -5.76475,-12.75515 -9.61766,-17.25641 -1.86323,-2.17676 -5.42757,-4.94524 -7.92076,-6.15217 -3.8455,-1.86158 -4.96242,-2.01659 -7.36364,-1.02197 -4.68129,1.93905 -7.03017,9.10526 -7.07349,21.58047 -0.0408,11.76281 3.20719,21.37008 10.41901,30.81808 1.9561,2.56263 3.55654,5.36981 3.55654,6.23819 0,0.86837 -1.59527,4.43146 -3.54504,7.91798 -1.94977,3.48652 -5.4415,10.94855 -7.7594,16.58229 -2.3179,5.63374 -4.71866,10.41126 -5.33503,10.61672 -0.61637,0.20545 -2.46698,-2.00846 -4.11247,-4.9198 -5.85803,-10.36458 -16.82701,-18.04454 -22.62426,-15.84043 -4.56708,1.7364 -5.1238,3.57816 -5.1238,16.95076 0,12.14107 0.11765,12.84473 3.25527,19.46985 3.43127,7.24515 14.7134,19.62646 17.88408,19.62646 1.81133,0 1.7497,0.62362 -1.43293,14.5 -1.29934,5.66517 -2.27628,8 -3.34737,8 -0.8319,0 -3.526,-2.46997 -5.9869,-5.48882 -8.46441,-10.38351 -18.94402,-14.38531 -24.1171,-9.20948 -1.98536,1.98642 -2.24857,3.23943 -2.20086,10.47728 0.0452,6.85116 0.48899,9.05417 2.6636,13.22102 4.70338,9.01233 14.57358,16.1474 24.93339,18.02409 l 3.65118,0.66141 0.59882,8.90725 c 0.32935,4.89899 0.87159,12.95725 1.20498,17.90725 0.44895,6.66573 0.29522,9 -0.59271,9 -0.65939,0 -3.92667,-2.46851 -7.26063,-5.48557 C 226.49822,522.94939 220.79017,520 215.33926,520 c -6.35518,0 -7.8592,2.41134 -7.74925,12.42415 0.11209,10.20921 2.99832,17.14559 10.3835,24.95433 7.19812,7.61095 15.01362,11.04389 25.43643,11.17291 l 7.90994,0.0979 5.15735,15.92535 c 2.83654,8.75894 5.95286,17.43956 6.92516,19.29025 0.97229,1.8507 1.39201,3.7321 0.93271,4.18089 -0.45931,0.4488 -4.12397,-1.398 -8.1437,-4.104 -8.27885,-5.57314 -16.09069,-8.22373 -24.02689,-8.15242 -7.08316,0.0637 -8.71439,1.64956 -8.51245,8.27597 0.19336,6.34518 5.31457,17.32048 11.75152,25.18477 C 245.19386,641.21131 261.75201,649 277.39029,649 h 5.29185 l 2.79556,5.13635 c 1.53755,2.82499 4.79387,8.0552 7.23625,11.62267 2.58878,3.7813 4.0702,6.85683 3.55226,7.37477 -0.51794,0.51794 -3.36517,0.0127 -6.82733,-1.21157 -6.15936,-2.17798 -21.29277,-3.67767 -25.77058,-2.55382 -5.81814,1.46026 -7.36272,7.38994 -3.76296,14.44605 2.36761,4.64091 10.45728,12.30957 15.9313,15.10221 10.32238,5.26609 26.04435,6.34287 36.28969,2.48545 4.56736,-1.71964 4.66294,-1.7131 7.5,0.51254 6.30876,4.94919 16.45016,15.44364 16.01641,16.57398 -0.27418,0.71449 -3.63677,1.44935 -8.30179,1.81429 -18.65399,1.45925 -31.01539,9.86551 -26.97291,18.34268 3.30019,6.92058 12.93308,11.37671 26.13196,12.08853 7.4789,0.40335 10.08456,0.1175 15.41708,-1.69129 6.88268,-2.3346 14.40654,-6.98693 16.36121,-10.11685 0.66154,-1.0593 1.74346,-1.92599 2.40426,-1.92599 0.66081,0 5.3217,2.51013 10.35755,5.57807 8.48464,5.16901 30.06542,16.37095 35.57333,18.46506 3.77422,1.43495 2.90681,3.74677 -1.86343,4.9664 -12.68375,3.24293 -21.93171,9.19695 -28.02498,18.04302 -4.75859,6.90843 -5.6636,11.5661 -2.90887,14.97055 1.85401,2.29128 2.7656,2.50282 12.16443,2.82281 8.77229,0.29865 11.2776,-0.009 18.33982,-2.25056 4.49878,-1.42806 10.6546,-4.32075 13.6796,-6.4282 6.61847,-4.61093 14.1896,-13.68158 16.00096,-19.17006 1.62599,-4.9268 1.69621,-4.93067 19.20972,-1.06004 12.53895,2.77121 27.41684,5.13816 41.53932,6.60858 5.14093,0.53527 6.25,0.97396 6.25,2.47219 0,1.3126 -1.46667,2.30113 -5.25,3.5385 -7.83147,2.56134 -12.84047,5.80931 -19.13293,12.4063 -6.60026,6.91968 -10.59341,14.74516 -10.6073,20.78738 -0.0181,7.8824 5.04863,9.94098 16.78084,6.81793 z M 389.38573,674.75 C 371.32668,655.86673 359.8993,636.08334 353.17681,612.06413 350.68243,603.15181 350.5,601.13697 350.5,582.5 c 0,-13.01862 0.48402,-22.44348 1.3866,-27 3.43344,-17.33309 11.8696,-37.2773 20.9379,-49.5 l 4.8225,-6.5 -3.81335,-8 C 359.1002,460.59074 363.52329,419.81333 384.76589,390.71345 l 4.95411,-6.78655 -6.6471,-6.71345 C 372.24703,366.27951 365,349.25741 365,334.76311 c 0,-5.20646 0.351,-6.26795 2.92308,-8.84003 2.0982,-2.0982 3.89417,-2.92308 6.36431,-2.92308 3.47519,0 3.98811,0.32981 16.64251,10.70107 9.51838,7.80106 21.74776,12.46867 37.34084,14.25197 l 7.22926,0.82677 10.5,-5.29534 c 25.83226,-13.02767 61.46297,-20.74718 88,-19.06549 28.01937,1.77564 50.42396,7.70762 74,19.59271 l 9.5,4.78911 7.5,-0.94254 c 16.0568,-2.0179 28.07375,-6.81643 39.16342,-15.63849 13.43358,-10.68669 15.80847,-11.40173 20.9135,-6.29669 2.56697,2.56697 2.92128,3.63295 2.9083,8.75 -0.0373,14.68949 -7.37011,31.99263 -17.99059,42.45195 l -6.7271,6.62504 5.42697,7.87496 c 14.63066,21.23025 21.19136,46.27368 18.4464,70.41339 -1.22847,10.80339 -5.53075,25.35923 -9.71145,32.8566 l -2.45076,4.39502 4.18607,5.54441 c 8.93394,11.83291 17.5483,31.69979 21.31839,49.16555 2.49296,11.5492 3.09644,36.50271 1.15203,47.63569 -4.55943,26.10564 -17.31133,51.13868 -36.35588,71.36962 -13.02113,13.83228 -14.67422,13.51935 -22.29446,-4.22041 -9.33332,-21.72775 -16.74083,-46.20546 -19.47748,-64.3623 -2.68004,-17.78115 -1.69736,-41.5958 2.43148,-58.92575 0.98236,-4.12327 1.65934,-7.49685 1.5044,-7.49685 -0.15494,0 -3.13055,0.75059 -6.61247,1.66797 -8.29058,2.18433 -31.82367,2.46778 -36.62793,0.44118 -6.14214,-2.59097 -8.2398,-11.1631 -3.81457,-15.58833 2.76431,-2.76431 5.27274,-3.26019 19.61173,-3.87693 17.83809,-0.76726 32.49744,-7.74085 45.03533,-21.42375 21.93164,-23.93452 25.0594,-59.08722 7.81928,-87.88034 -4.87925,-8.14895 -17.16651,-20.28619 -25.35461,-25.04504 -11.21887,-6.52032 -22.01048,-9.54541 -34.5,-9.67101 -11.6372,-0.11702 -18.25823,1.18848 -27.84633,5.49061 -12.61172,5.65881 -22.83475,14.5073 -32.5636,28.18524 -3.01379,4.23714 -5.42674,6.68592 -6.40286,6.49794 -0.86155,-0.16592 -3.95028,-3.45074 -6.86385,-7.29961 -8.59334,-11.35192 -18.92529,-20.54457 -28.4483,-25.31132 -11.88117,-5.94712 -19.177,-7.65455 -32.37506,-7.57667 -9.23357,0.0545 -12.26848,0.49938 -18.89916,2.77049 -25.46781,8.7231 -43.70142,29.57144 -49.23409,56.29434 -1.97131,9.52144 -1.39863,27.01753 1.15625,35.32523 5.90124,19.18907 19.06895,35.12041 35.88532,43.41688 9.00264,4.44152 17.28513,6.37689 30.90266,7.22104 11.7399,0.72776 14.89668,2.06901 16.09358,6.83784 0.93552,3.72742 -1.74634,9.11821 -5.57578,11.20782 -4.94791,2.69993 -30.87281,2.46362 -38.92524,-0.3548 l -5.59646,-1.95882 1.26971,4.21893 c 5.44992,18.10871 5.92266,54.34084 0.99045,75.91111 -3.4233,14.97132 -9.8966,34.55178 -16.546,50.04845 -8.10965,18.89984 -9.11296,19.24999 -20.63551,7.20155 z m 15.86129,-3.06211 c 4.3344,-9.03532 11.63249,-28.79109 15.25949,-41.30713 8.90626,-30.73363 9.73249,-58.95047 2.58792,-88.38076 -1.0014,-4.125 -1.48112,-7.63373 -1.06606,-7.79717 0.41507,-0.16345 3.61598,0.7072 7.11315,1.93477 4.83213,1.69617 9.30853,2.33256 18.64782,2.65108 14.58632,0.49748 18.62842,-0.11553 21.82239,-3.3095 3.08373,-3.08373 3.06425,-6.80229 -0.0485,-9.25075 -1.95496,-1.53778 -4.77236,-2.04244 -14.25,-2.55253 -13.65685,-0.73501 -20.06308,-2.25939 -29.81327,-7.09417 -26.69055,-13.23492 -42.63667,-44.24913 -38.60298,-75.0804 1.46746,-11.21638 3.04739,-16.62605 7.55648,-25.87322 9.77751,-20.05159 28.30765,-35.34991 48.5465,-40.07955 8.25856,-1.92996 23.46074,-1.94579 32.487,-0.0338 16.44127,3.48261 33.36021,15.20066 45.3606,31.41672 l 5.49949,7.43145 1.57646,-2.42478 c 8.33648,-12.82256 20.94768,-24.76673 32.07645,-30.37987 12.40631,-6.25751 16.07077,-7.06173 32,-7.02288 12.93682,0.0315 15.33852,0.31753 22.27805,2.6527 25.30692,8.51585 45.29341,31.07177 50.78333,57.31194 3.11999,14.91261 0.65563,36.20772 -5.63047,48.65411 C 646.10242,509.54438 622.86271,524 593.76466,524 583.80299,524 581,525.39838 581,530.36814 c 0,3.74778 2.84539,7.30397 6.59759,8.24571 1.39823,0.35093 8.69828,0.40528 16.22232,0.12077 10.59293,-0.40055 15.10315,-1.01813 19.98605,-2.73666 3.46828,-1.22065 6.57594,-1.94939 6.90592,-1.61942 0.32997,0.32998 -0.58508,5.44229 -2.03344,11.36071 -4.97696,20.33719 -5.30357,47.42745 -0.81716,67.77647 C 633.57752,639.44282 648.94037,680 653.0452,680 c 2.49441,0 17.43792,-16.19155 24.1278,-26.14289 10.33222,-15.36941 17.96165,-33.23294 21.93438,-51.35711 1.69317,-7.72447 1.67638,-32.69841 -0.0286,-42.5 -2.92324,-16.80542 -12.94181,-41.63852 -20.91504,-51.84221 -6.82116,-8.72933 -6.7224,-7.99782 -2.27154,-16.82475 6.07765,-12.05318 8.21769,-20.74843 8.81906,-35.83304 0.97592,-24.47943 -4.99074,-43.62002 -20.31821,-65.17919 C 661.97689,386.92225 660,383.4463 660,382.59649 c 0,-0.84982 1.2375,-2.1946 2.75,-2.98839 10.63693,-5.58249 22.17264,-27.77083 22.58385,-43.43886 0.15158,-5.77547 -0.0767,-6.54016 -2.60257,-8.71813 -3.4254,-2.95362 -5.88783,-2.24375 -12.5456,3.61665 -11.39445,10.0298 -20.98732,14.74302 -36.68568,18.0246 -14.14539,2.95696 -15.80166,2.72878 -30.11857,-4.14932 C 575.40627,331.50326 549.68842,326.0657 520,327.31359 c -24.81451,1.04302 -52.1874,8.04454 -72.75535,18.60957 -11.13279,5.71853 -12.93374,5.9573 -26.75445,3.54717 -15.11764,-2.6363 -23.60442,-6.99555 -39.82656,-20.45702 -2.66,-2.20732 -5.44741,-4.01331 -6.19424,-4.01331 -0.74683,0 -2.61886,1.08466 -4.16008,2.41035 -2.56827,2.20914 -2.78738,2.93959 -2.62462,8.75 0.37396,13.35053 8.66316,31.47164 18.40114,40.22692 2.82176,2.537 5.5318,4.61273 6.02231,4.61273 2.06082,0 0.58751,3.67034 -3.96499,9.87769 -6.46387,8.8135 -9.38863,14.04013 -13.20664,23.60063 -10.01149,25.06928 -9.21668,54.25077 2.09982,77.09503 l 4.05131,8.17826 -5.42072,7.20567 c -9.63468,12.80722 -17.79472,31.90305 -21.36586,49.99961 -2.62405,13.29725 -2.34089,38.87452 0.55952,50.54106 4.37273,17.58873 13.15273,36.15071 23.88797,50.50205 7.51235,10.04283 19.28462,22.13712 21.20376,21.78375 0.85122,-0.15674 3.23384,-3.79988 5.2947,-8.09586 z m -31.23217,-73.90232 c -3.73961,-4.01401 -4.40875,-8.56519 -3.05786,-20.79835 2.54269,-23.02561 13.25651,-52.32444 21.34084,-58.36026 2.34354,-1.74971 2.96083,-1.82649 5.17168,-0.64328 3.39692,1.81798 6.53049,8.6373 6.53049,14.21176 0,5.19582 -13.0289,54.04919 -16.15681,60.58184 -3.25976,6.80801 -9.9083,9.21595 -13.82834,5.00829 z m 7.44596,-1.4089 c 3.39371,-1.30229 7.92131,-14.54942 16.98033,-49.68208 3.15086,-12.21964 3.43362,-14.30632 2.46169,-18.16622 C 399.83814,524.30013 396.86787,520 395.01194,520 c -1.80473,0 -6.23277,7.05877 -10.46627,16.68435 -5.18359,11.78576 -7.94038,20.795 -10.00503,32.69664 -3.48229,20.07362 -0.93515,30.01005 6.92017,26.99568 z m 287.74831,2.05725 c -1.22974,-0.86135 -3.07067,-3.22385 -4.09094,-5.25 -3.35692,-6.66651 -17.11411,-56.47052 -17.11666,-61.96604 -0.003,-6.0414 4.84042,-14.21788 8.42175,-14.21788 3.33562,0 8.07467,5.78716 12.68054,15.48502 8.95476,18.85463 12.3701,32.87625 12.38583,50.84983 0.0103,11.73277 -0.0138,11.85569 -2.7954,14.25 -3.24551,2.79368 -6.31635,3.06856 -9.48512,0.84907 z m 8.38589,-3.54339 c 4.21297,-4.66518 0.92338,-31.85567 -6.03328,-49.86874 -6.6349,-17.17993 -12.24216,-25.84912 -15.82904,-24.47271 -2.136,0.81966 -4.93356,6.95681 -4.9289,10.81278 0.004,3.6602 1.36978,9.16286 8.81919,35.54311 5.89084,20.86099 7.54918,25.5228 10.07015,28.30843 2.16795,2.39556 5.57259,2.25645 7.90188,-0.32287 z m -189.93146,80.88633 c -7.378,-1.95473 -13.76802,-11.52813 -12.1084,-18.14057 1.00377,-3.99933 4.15595,-6.63629 7.93291,-6.63629 2.72216,0 3.94874,0.70612 6.07974,3.5 1.46827,1.925 3.49327,3.5 4.5,3.5 1.00673,0 3.03173,-1.575 4.5,-3.5 5.1874,-6.80103 13.4322,-3.30195 13.4322,5.7006 0,7.14296 -4.78928,13.0654 -12.39111,15.32291 -5.59851,1.66258 -6.55015,1.68276 -11.94534,0.25335 z m 15.87042,-5.23497 c 4.16902,-3.17987 6.89633,-8.6913 6.02291,-12.17127 -0.32375,-1.28992 -1.76322,-3.11494 -3.19882,-4.05558 -2.59605,-1.701 -2.62979,-1.68746 -6.23412,2.50284 -4.8083,5.58999 -7.80517,5.63501 -12.12394,0.18212 -3.62727,-4.57981 -4.7246,-4.83688 -7.92384,-1.85633 -4.33642,4.03999 -0.91471,13.6499 6.14202,17.24995 4.92585,2.51295 12.68065,1.68366 17.31579,-1.85173 z m 48.55994,5.16659 c -7.86661,-2.51128 -13.41504,-12.17539 -11.0699,-19.28125 1.2922,-3.91539 3.49316,-5.42723 7.90106,-5.42723 2.38981,0 3.54935,0.75867 5.31574,3.47805 3.23964,4.98745 4.49416,5.06465 8.63784,0.53153 4.36821,-4.77876 7.96383,-5.25801 11.6668,-1.55503 1.81001,1.81 2.45455,3.5341 2.45455,6.56574 0,7.32694 -4.71239,13.22288 -12.39111,15.50322 -5.67014,1.68385 -7.72464,1.71421 -12.51498,0.18497 z m 13.16429,-3.1719 c 1.92634,-0.80487 4.68143,-2.86456 6.12241,-4.57707 4.6368,-5.51052 4.62436,-10.5997 -0.0334,-13.65156 -2.45039,-1.60555 -2.57825,-1.55434 -6.30864,2.52664 -4.9406,5.40495 -7.56606,5.44025 -12.30139,0.16541 -4.12331,-4.5931 -4.94661,-4.7906 -7.85331,-1.8839 -1.66413,1.66413 -2.00617,2.93564 -1.60143,5.95317 1.35839,10.12759 11.95198,15.6555 21.97573,11.46731 z m 28.39699,-36.99523 C 586.46137,632.9764 582,627.04649 582,620.04966 c 0,-8.43119 7.55881,-10.83932 14.06908,-4.48221 l 3.65341,3.56746 4.76653,-4.12541 c 2.76291,-2.39128 5.37774,-3.89087 6.22055,-3.56745 0.7997,0.30687 1.84967,0.55795 2.33326,0.55795 2.2109,0 4.95717,4.56397 4.95717,8.23822 0,7.50637 -5.56718,13.73294 -14.02005,15.68063 -5.59064,1.28818 -5.66022,1.28564 -10.32476,-0.3775 z M 606.5,632.11927 c 6.99501,-3.21212 10.53678,-9.20204 8.43761,-14.26989 -1.84899,-4.46385 -4.58146,-4.60304 -8.83454,-0.45002 -4.71852,4.6075 -7.48762,4.6075 -12.20614,0 -2.78157,-2.71613 -4.20469,-3.43646 -5.79322,-2.93228 -6.65094,2.11093 -4.11244,12.50749 4.30759,17.64197 3.88782,2.37077 8.94016,2.37444 14.0887,0.0102 z m -163.12088,2.44415 c -5.97908,-2.60226 -10.4722,-11.0721 -8.99526,-16.9567 1.58817,-6.32779 8.91577,-7.75015 13.42905,-2.60672 1.44785,1.65 3.34806,3 4.22268,3 0.87463,0 2.88361,-1.35 4.46441,-3 2.03608,-2.12521 3.81939,-3 6.11566,-3 10.39148,0 9.23957,16.46207 -1.53659,21.95966 -4.67052,2.38272 -12.96264,2.66557 -17.69995,0.60376 z m 15.35022,-2.52724 c 6.97628,-3.16686 10.74202,-12.42196 6.69923,-16.46475 -2.311,-2.31101 -3.65847,-1.96118 -7.42857,1.92857 -1.97142,2.03399 -4.37128,3.5 -5.7295,3.5 -1.33771,0 -3.83389,-1.49672 -5.83717,-3.5 -3.8689,-3.8689 -5.51723,-4.27324 -7.8619,-1.92857 -3.8629,3.86289 -0.33067,12.99338 6.41297,16.57696 4.41944,2.34849 8.39577,2.31603 13.74494,-0.11221 z m 59.27117,2.84037 C 512.15579,632.54594 508,626.43055 508,620.16044 c 0,-4.83243 2.38844,-7.93962 6.75107,-8.78264 2.90617,-0.56158 3.68153,-0.16407 7.30878,3.74699 l 4.05772,4.37521 3.35284,-3.81437 c 4.34683,-4.9452 8.69682,-5.3551 12.30567,-1.15957 4.79213,5.57119 1.02445,15.84379 -7.17715,19.56851 -4.44026,2.01652 -12.54488,2.39834 -16.59842,0.78198 z m 15.93789,-3.34469 c 3.29277,-1.70276 6.62894,-5.95983 7.55164,-9.63614 0.72786,-2.90003 -2.6335,-7.89574 -5.31262,-7.89569 -0.92258,2e-5 -2.9341,1.57502 -4.47005,3.5 -3.76209,4.71498 -7.28039,4.71497 -11.57094,-3e-5 -3.74633,-4.11694 -6.47248,-4.44295 -8.70176,-1.04064 -3.02417,4.61546 1.16945,13.08463 8.01575,16.18814 3.55079,1.60961 10.20947,1.09686 14.48798,-1.11564 z m -55.28321,-34.99051 c -2.11465,-0.75397 -4.98514,-2.42172 -6.37888,-3.70611 C 464.31907,585.50233 465.80717,572 474.57258,572 c 3.29375,0 7.42742,2.76313 7.42742,4.96482 0,0.53065 0.92519,1.45996 2.05598,2.06514 1.77919,0.95219 2.55623,0.55305 5.77188,-2.96482 4.6538,-5.09118 8.85945,-5.54465 12.19708,-1.31514 4.6959,5.95074 0.31756,16.7849 -8.42906,20.85764 -5.76904,2.68627 -9.39058,2.9126 -14.94069,0.93371 z m 14.07415,-3.50517 c 7.81407,-3.54717 11.2028,-14.06886 5.69374,-17.67854 -2.54889,-1.67009 -2.61833,-1.64315 -6.38448,2.47695 -5.43105,5.94149 -8.28482,5.59934 -14.27881,-1.71193 -2.2473,-2.74119 -3.29898,-2.67438 -6.37858,0.40522 -2.07385,2.07385 -2.40523,3.10659 -1.84504,5.75 2.20003,10.3813 12.99404,15.38817 23.19317,10.7583 z m 66.92585,3.54438 C 552.48175,593.94972 548,588.0295 548,581.18452 c 0,-9.95788 10.39184,-12.79495 15.04173,-4.10654 0.58143,1.0864 2.08495,1.92202 3.45827,1.92202 1.37332,0 2.87684,-0.83562 3.45827,-1.92202 3.96425,-7.40728 13.11422,-6.53897 14.60087,1.38558 1.16473,6.20852 -3.27626,13.85408 -10.05914,17.31775 -3.69896,1.88887 -10.8273,2.27267 -14.84481,0.79925 z m 13.77909,-3.56572 C 580.99428,589.32352 584.42721,580.42721 580,576 c -2.83713,-2.83713 -4.53083,-2.4952 -6.93868,1.40078 -3.77167,6.1027 -8.5296,6.32098 -13.06132,0.59922 -1.74243,-2.2 -3.6007,-4 -4.12948,-4 -0.52879,0 -2.09897,1.13754 -3.48931,2.52788 -2.07385,2.07385 -2.40523,3.10659 -1.84504,5.75 2.19135,10.34035 13.16856,15.48758 22.89811,10.73696 z M 521.31761,526.75 c -7.74254,-8.18393 -17.53002,-25.87623 -19.0967,-34.5201 -2.31282,-12.76059 4.23451,-23.77586 16.67831,-28.0597 10.89844,-3.75184 24.83387,2.44981 30.14142,13.41375 5.15006,10.6386 -0.6917,27.93806 -15.92724,47.16605 -4.96004,6.25981 -7.37788,6.66976 -11.79579,2 z m 11.78439,-6.57197 c 2.78305,-3.67292 7.37861,-11.33893 10.21237,-17.03558 4.37086,-8.78666 5.1523,-11.21348 5.1523,-16.001 0,-14.41841 -16.10999,-24.98651 -30.0019,-19.68114 -7.83543,2.99237 -14.39129,11.72768 -14.44281,19.2442 -0.0326,4.75632 4.13125,15.34403 9.62366,24.47074 5.53347,9.19494 12.08706,17.108 13.46403,16.25698 0.51275,-0.31689 3.20931,-3.58129 5.99235,-7.2542 z m -220.83231,-0.66062 c -9.45332,-4.10962 -9.68686,-20.1476 -0.36357,-24.96886 3.96338,-2.04954 10.57872,-1.96593 14.21083,0.17961 4.06166,2.39927 7.29294,9.35856 6.52955,14.06281 -1.53229,9.44234 -11.39184,14.63246 -20.37681,10.72644 z M 326.6,514.6 c 4.7895,-4.7895 4.78869,-10.11405 -0.002,-15.34196 -2.81838,-3.07538 -4.07623,-3.71259 -7.32867,-3.71259 -10.75966,0 -15.8392,12.03819 -8.27238,19.60501 2.32034,2.32035 3.71809,2.84954 7.52646,2.84954 3.98552,0 5.17955,-0.50263 8.07692,-3.4 z m 401.70433,4.444 c -5.35013,-3.26218 -6.7361,-6.59434 -6.41029,-15.41165 0.0711,-1.92472 1.42199,-4.18368 4.10833,-6.87002 3.93016,-3.93016 4.1106,-3.99454 10.00102,-3.56847 4.85546,0.35122 6.5515,0.96358 8.89965,3.21325 7.05194,6.75618 5.34635,18.87401 -3.22928,22.94341 -4.61416,2.18957 -9.45786,2.07851 -13.36943,-0.30652 z m 12.7284,-2.56093 c 8.69497,-4.49634 7.10991,-17.30071 -2.53574,-20.48406 -8.49235,-2.80273 -16.95594,6.65035 -13.47605,15.05155 2.64506,6.38574 9.60321,8.74652 16.01179,5.43251 z M 431.6693,467.95451 c -3.60896,-2.83881 -4.75753,-7.71662 -3.56322,-15.13256 1.27426,-7.91242 3.67649,-12.44504 9.38396,-17.70601 7.26594,-6.69751 12.36289,-8.60491 23.00996,-8.61089 7.32626,-0.004 9.85092,0.41427 13.57557,2.24972 11.59762,5.71512 18.95668,16.54785 19.12114,28.14685 0.10025,7.06989 -1.88823,10.82889 -6.55047,12.38297 -6.26077,2.08692 -10.92024,-1.47047 -12.6143,-9.63073 -1.55749,-7.50238 -6.96935,-12.65568 -13.28482,-12.65012 C 453.2211,447.01036 447,453.11845 447,460.50113 447,464.30292 441.14322,470 437.23486,470 c -1.63083,0 -4.13533,-0.92047 -5.56556,-2.04549 z M 441.68774,464.75 c 1.12,-1.2375 2.56523,-4.42842 3.21161,-7.09094 0.64638,-2.66252 2.12734,-6.12871 3.29101,-7.70266 2.3737,-3.2106 8.31094,-5.9564 12.87954,-5.9564 6.92946,0 14.35672,6.99364 15.49607,14.59138 0.79507,5.30188 3.31606,8.40862 6.82325,8.40862 6.76355,0 9.37591,-8.29444 5.69413,-18.07935 -5.29974,-14.08489 -19.65041,-22.4076 -34.05163,-19.74834 -7.4976,1.38448 -11.76588,3.767 -17.24773,9.62754 C 428.03978,449.21719 427.53322,467 436.98067,467 c 1.49958,0 3.56366,-0.98664 4.70707,-2.25 z m 121.22972,2.46756 c -4.30085,-3.84281 -4.89589,-9.63765 -1.97656,-19.24889 1.77511,-5.84416 3.10261,-8.10742 7.10007,-12.10488 7.32879,-7.32879 12.4072,-9.29876 23.95903,-9.29394 8.36667,0.003 10.11885,0.32585 14.68743,2.70219 10.54317,5.48402 17.2625,15.42965 18.07925,26.76008 0.43081,5.97637 0.24295,6.80299 -2.20818,9.71599 -3.32952,3.9569 -8.1008,5.05705 -12.36615,2.85136 -3.21152,-1.66075 -3.64547,-2.52085 -4.70222,-9.32003 -1.71201,-11.0151 -13.99996,-16.16076 -21.94139,-9.18809 -3.27441,2.87497 -4.02092,4.5228 -5.9753,13.18967 -0.69448,3.07977 -5.72513,6.70925 -9.30766,6.71524 -1.22883,0.002 -3.63557,-1.24836 -5.34832,-2.7787 z m 10.62799,-2.67211 C 574.9526,463.13831 576,460.92608 576,459.36118 c 0,-5.10054 3.75552,-11.06442 8.37583,-13.30107 10.58433,-5.12379 21.02236,0.24367 23.56935,12.11986 1.89155,8.82 6.18644,11.19137 11.69208,6.45562 7.47116,-6.42642 -0.90956,-26.1424 -13.93763,-32.78883 -10.9258,-5.57392 -25.96814,-3.4327 -35.07523,4.99284 -8.30788,7.68616 -11.42999,25.2517 -5.2247,29.39509 2.18035,1.45585 5.73855,0.71797 8.14575,-1.68924 z M 323.8728,451.31629 C 319.98083,448.90084 318,444.82886 318,439.24359 c 0,-6.6778 3.09394,-11.27648 8.81268,-13.09874 8.54525,-2.72291 16.1139,1.38098 18.32712,9.93735 1.03666,4.00773 0.94548,5.07172 -0.72728,8.4868 -2.62117,5.35139 -7.50947,8.43793 -13.3104,8.40439 -2.53117,-0.0146 -5.78436,-0.76033 -7.22932,-1.6571 z m 11.83328,-1.79039 C 339.00804,448.57876 343,443.29607 343,439.87361 c 0,-6.56097 -4.92531,-11.88414 -10.97251,-11.85887 -4.94186,0.0206 -8.23157,1.93467 -10.31103,5.99917 -2.26246,4.4222 -1.49182,9.50358 1.99956,13.18459 3.37777,3.56123 5.94878,4.06029 11.99006,2.3274 z m 380.32394,2.19479 c -6.34963,-3.21295 -8.85768,-12.57468 -5.27847,-19.70275 2.23544,-4.45191 9.22786,-7.61959 14.59647,-6.61243 13.5822,2.54804 15.26318,21.63023 2.33688,26.52788 -3.73706,1.41593 -8.61211,1.32696 -11.65488,-0.2127 z m 10.67606,-2.19479 C 730.46406,448.44796 734,443.31567 734,438.93905 c 0,-8.17038 -9.31482,-13.41321 -16.88021,-9.50099 -5.20847,2.6934 -7.02957,10.99831 -3.56962,16.27886 1.75958,2.68545 7.09109,5.40207 9.44983,4.81507 0.825,-0.20531 2.49274,-0.65805 3.70608,-1.00609 z M 520.26969,252.51741 c -9.45332,-4.10962 -9.68686,-20.1476 -0.36357,-24.96886 7.20681,-3.72679 16.20622,-0.80948 19.33713,6.26844 3.36533,7.60791 1.01328,14.481 -6.21804,18.17015 -4.59012,2.3417 -8.2397,2.49342 -12.75552,0.53027 z m 11.63147,-2.9663 c 3.81757,-1.97414 6.09884,-5.758 6.09884,-10.11593 0,-2.78822 -0.77843,-4.41361 -3.34106,-6.97624 -4.40957,-4.40957 -7.60908,-5.13577 -12.37319,-2.80838 -5.33587,2.60671 -7.96908,8.12532 -6.3907,13.39347 2.1173,7.06692 9.287,9.98167 16.00611,6.50708 z"
         id="path1" />
    </g>
    <g
       id="g20"
       style="display:inline;fill:#4f1eb0;fill-opacity:1">
      <path
         style="display:inline;fill:#4f1eb0;stroke-width:0.222656;fill-opacity:1"
         d="m 448.23683,633.32844 c -2.29966,-0.61859 -4.68042,-2.05745 -6.59863,-3.98803 -1.95409,-1.96667 -2.99972,-3.5624 -3.82603,-5.83885 -1.12567,-3.10118 -0.85123,-5.8789 0.75667,-7.65866 2.07148,-2.29288 3.6292,-2.07405 6.90014,0.96935 2.28448,2.12556 3.26871,2.87875 4.71502,3.60819 2.57263,1.29749 4.37106,0.57539 8.59953,-3.45286 1.11993,-1.0669 2.34944,-2.10178 2.73223,-2.29973 1.35224,-0.69927 2.51792,-0.35341 3.87622,1.15006 1.19688,1.3248 1.59667,2.59656 1.46647,4.66499 -0.19996,3.17693 -1.4949,5.81303 -4.19898,8.54784 -1.37391,1.38952 -2.08121,1.89931 -3.78515,2.72817 -3.72977,1.8143 -7.60298,2.38578 -10.63749,1.56953 z"
         id="path3" />
      <path
         style="fill:#4f1eb0;stroke-width:0.222656;fill-opacity:1"
         d="m 482.16159,594.38078 c -6.62763,-1.24694 -11.44572,-6.08424 -12.58683,-12.637 -0.3694,-2.12123 -0.0736,-2.95389 1.72764,-4.8633 0.81253,-0.86134 1.91568,-1.82295 2.45144,-2.13692 1.479,-0.86676 1.97849,-0.62285 4.50738,2.201 3.69382,4.12465 5.31473,5.18893 7.67398,5.03871 1.91136,-0.12171 3.11267,-0.94543 6.75941,-4.63485 3.03836,-3.07391 3.26098,-3.19741 4.56298,-2.53142 3.88744,1.98847 4.80997,6.39159 2.35993,11.26364 -2.32132,4.6161 -6.70824,7.60483 -12.33484,8.40351 -2.00072,0.28399 -3.18977,0.25999 -5.12109,-0.10337 z"
         id="path4" />
      <path
         style="fill:#4f1eb0;stroke-width:0.314883;fill-opacity:1"
         d="m 596.74149,633.51094 c -6.69679,-1.13657 -13.5068,-9.81243 -12.02414,-15.31859 0.39139,-1.45353 2.45015,-3.51962 3.564,-3.5767 1.92573,-0.0987 2.65311,0.30336 5.78607,3.19812 4.51928,4.17568 7.16693,4.16507 11.91276,-0.0477 2.82459,-2.50734 3.84593,-3.11153 5.2622,-3.11298 0.95971,-9.7e-4 1.33919,0.21253 2.23234,1.25597 2.68538,3.13726 2.34106,7.59806 -0.89092,11.54226 -3.31582,4.04653 -10.81124,6.9135 -15.84231,6.05963 z"
         id="path5" />
      <path
         style="fill:#4f1eb0;stroke-width:0.314883;fill-opacity:1"
         d="m 522.11418,633.20182 c -2.52059,-0.43636 -5.13052,-1.97994 -7.36548,-4.35612 -2.49765,-2.65547 -3.73904,-5.15526 -3.93749,-7.92892 -0.19051,-2.66261 0.27514,-4.04582 1.83703,-5.45689 2.01183,-1.81757 3.40228,-1.49582 6.55254,1.51628 2.82364,2.69979 4.54803,3.88143 6.02957,4.13173 2.11519,0.35736 3.34152,-0.30352 6.81065,-3.67034 2.46289,-2.39026 3.39212,-3.10054 4.05631,-3.10054 2.23869,0 4.87586,3.18192 5.12477,6.18336 0.12023,1.44986 -0.01,2.01005 -0.87267,3.76303 -1.30316,2.64709 -4.19839,5.74073 -6.53391,6.98167 -3.219,1.71038 -8.22389,2.53876 -11.70132,1.93674 z"
         id="path6" />
      <path
         style="fill:#4f1eb0;stroke-width:0.314883;fill-opacity:1"
         d="m 561.72377,594.04453 c -5.44245,-1.50135 -9.91128,-6.37007 -11.03438,-12.0218 -0.30775,-1.54869 -0.30294,-2.12169 0.0244,-2.91207 0.51137,-1.23456 4.24543,-4.7638 5.04027,-4.7638 0.34656,0 1.84072,1.34653 3.60335,3.24732 3.61189,3.89501 5.07355,4.76778 7.62972,4.55581 2.29026,-0.18993 3.88658,-1.34538 6.00186,-4.34426 2.94329,-4.17277 3.8905,-4.43099 6.53893,-1.78256 2.20867,2.20867 2.71299,4.07825 1.92734,7.14492 -1.25596,4.90252 -5.0765,8.74374 -10.55395,10.61107 -2.37978,0.8113 -6.74138,0.93742 -9.17758,0.26537 z"
         id="path7" />
      <path
         style="display:inline;fill:#4f1eb0;stroke-width:0.314883;fill-opacity:1"
         d="m 554.90681,673.37317 c -5.8301,-1.26664 -10.47355,-6.23675 -11.41437,-12.21737 -0.5197,-3.30372 0.42432,-5.55951 2.99025,-7.14535 1.67109,-1.03279 2.43696,-0.67287 5.69787,2.67765 3.53107,3.6281 4.49566,4.2489 6.60432,4.25045 2.04216,0.002 3.81226,-1.12237 6.52403,-4.14224 1.07419,-1.19625 2.41518,-2.46626 2.97997,-2.82224 l 1.02689,-0.64725 1.38027,0.80889 c 3.51987,2.06278 4.75287,5.35538 3.36917,8.99699 -1.86912,4.91912 -6.88246,9.12164 -12.23453,10.2558 -2.58959,0.54877 -4.34532,0.54488 -6.92387,-0.0153 z"
         id="path8" />
      <path
         style="display:inline;fill:#4f1eb0;stroke-width:0.314883;fill-opacity:1"
         d="m 488.54121,673.09354 c -6.42013,-2.03574 -11.38743,-9.54086 -9.91937,-14.98721 0.44736,-1.65962 2.82106,-4.23548 4.22863,-4.58876 1.27004,-0.31876 2.16097,0.3021 4.74609,3.30735 1.2123,1.40932 2.71056,2.91655 3.32947,3.34939 2.86828,2.00599 5.36478,1.09848 9.56465,-3.47687 1.49822,-1.63216 3.0025,-3.05594 3.34285,-3.16397 1.21826,-0.38666 5.06218,2.91322 5.52046,4.73914 0.41184,1.64093 -0.10586,4.15069 -1.34106,6.50127 -2.20157,4.1896 -5.86606,7.11028 -10.4041,8.29229 -2.18097,0.56807 -7.31356,0.58357 -9.06762,0.0274 z"
         id="path9" />
      <path
         style="display:inline;fill:#4f1eb0;stroke-width:0.629766;fill-opacity:1"
         d="m 523.63647,524.28044 c -8.56098,-9.11832 -19.19367,-29.85203 -19.19367,-37.4276 0,-6.33458 5.36911,-14.34081 12.05893,-17.98186 4.69726,-2.55657 11.81706,-2.95081 17.12676,-0.94835 4.86497,1.83474 9.58836,5.79889 11.99865,10.06999 1.80875,3.20517 1.95466,3.9134 1.95466,9.48807 v 6.02435 l -4.22974,8.46027 c -4.44899,8.89884 -10.11209,17.87532 -14.27688,22.63002 l -2.48234,2.83394 z"
         id="path10" />
      <path
         style="display:inline;fill:#4f1eb0;stroke-width:0.629766;fill-opacity:1"
         d="m 434.04551,465.67395 c -2.27327,-1.59226 -3.28536,-4.27966 -3.28536,-8.7236 0,-12.96268 11.22349,-25.30394 25.03564,-27.52898 15.49485,-2.49611 31.13296,8.70098 34.19283,24.4825 0.9676,4.99047 0.0268,8.91407 -2.68439,11.1954 -3.78506,3.18492 -8.46449,0.91989 -9.91245,-4.79803 -1.99404,-7.87436 -5.20353,-12.53118 -10.35534,-15.02513 -5.72155,-2.76976 -14.12319,-0.98923 -18.41904,3.90347 -1.08417,1.2348 -2.60897,4.1845 -3.38846,6.5549 -2.06286,6.27312 -3.53725,8.88408 -5.62697,9.96472 -2.35274,1.21665 -3.79274,1.2101 -5.55646,-0.0253 z"
         id="path11" />
      <path
         style="display:inline;fill:#4f1eb0;stroke-width:0.629766;fill-opacity:1"
         d="m 564.67961,464.76453 c -5.46288,-6.49225 -0.24335,-23.49394 9.20172,-29.973 12.00749,-8.23681 28.25392,-7.34552 37.87313,2.07775 5.82474,5.70608 10.4565,14.81786 10.45366,20.56483 -0.002,4.19731 -4.31123,9.22272 -7.90825,9.22272 -2.20266,0 -4.45059,-3.25685 -6.19741,-8.97892 -0.87155,-2.85495 -2.456,-6.37452 -3.52098,-7.82127 -4.94095,-6.71208 -15.78184,-7.86468 -22.90077,-2.43481 -2.59565,1.9798 -5.25189,6.75094 -5.82013,10.45409 -0.5916,3.85546 -1.84644,6.09914 -4.2208,7.54687 -2.92907,1.78596 -5.07421,1.58308 -6.96017,-0.65826 z"
         id="path12" />
      <path
         style="display:inline;fill:#4f1eb0;stroke-width:0.890624;fill-opacity:1"
         d="m 651.71257,677.96466 c -4.74979,-5.40521 -17.45745,-39.9054 -22.45903,-60.97433 -5.3831,-22.67604 -5.36403,-46.63113 0.0571,-71.76485 1.19564,-5.54323 1.97443,-10.40134 1.73065,-10.79578 -0.24379,-0.39444 -4.03498,0.21572 -8.4249,1.35593 -6.35192,1.64979 -10.8247,2.12653 -21.90547,2.33485 l -13.92383,0.26175 -2.6048,-2.90858 c -2.90263,-3.24113 -3.43878,-7.31397 -1.20668,-9.16645 0.84292,-0.69956 5.529,-1.43599 11.80077,-1.85452 14.1089,-0.94149 22.27026,-2.85446 31.77762,-7.44845 13.18471,-6.3709 22.70506,-15.34918 30.71664,-28.96767 6.64401,-11.29384 9.27382,-22.63361 9.18537,-39.60736 -0.0511,-9.80604 -0.41878,-12.77868 -2.40228,-19.42225 -7.13185,-23.88755 -24.56104,-42.68693 -47.84854,-51.61012 l -7.46367,-2.8599 -16.92186,0.0194 c -16.34101,0.0187 -17.13585,0.10354 -23.15622,2.47234 -13.90726,5.47202 -27.98684,16.6392 -38.06572,30.19174 l -4.45785,5.99424 -2.70037,-3.76768 c -11.17719,-15.59487 -25.54013,-26.98102 -40.8909,-32.41604 -5.61954,-1.98963 -8.39842,-2.36213 -20.31473,-2.72315 -10.62904,-0.32202 -15.18351,-0.095 -19.79856,0.98705 -22.07836,5.17634 -41.98445,23.34503 -51.34214,46.86101 -3.54131,8.89936 -5.8621,24.66525 -5.03186,34.18298 2.6447,30.31832 21.22485,55.23161 47.85939,64.17253 4.53136,1.52112 10.87745,2.64046 19.68699,3.47243 14.55574,1.37462 17.53242,2.51105 17.53242,6.69348 0,3.53745 -3.25377,6.18495 -8.95259,7.28448 -7.21897,1.39282 -23.82284,0.17973 -32.8022,-2.39654 -4.10616,-1.17811 -7.6767,-1.93107 -7.93452,-1.67325 -0.25781,0.25782 0.59465,5.58182 1.89436,11.8311 6.79628,32.67791 5.21647,57.75685 -5.78,91.75538 -7.68244,23.7523 -15.32003,41.17714 -18.04863,41.17714 -2.16036,0 -18.00747,-17.47369 -23.97054,-26.43091 -10.23202,-15.3697 -18.77194,-35.63879 -21.27335,-50.49127 -1.60563,-9.53368 -1.3074,-35.00375 0.52009,-44.41735 3.248,-16.73084 11.58826,-36.27142 21.19308,-49.65369 4.82512,-6.72278 5.32606,-7.81199 4.50569,-9.79686 -0.50765,-1.22824 -2.36248,-5.47611 -4.12186,-9.43971 -6.00197,-13.52147 -7.10171,-19.29837 -7.10544,-37.32465 -0.003,-14.55126 0.21413,-16.83514 2.35216,-24.73918 2.93067,-10.83434 8.69344,-23.12353 15.6333,-33.33823 7.30331,-10.74968 7.30789,-10.78289 2.03816,-14.80164 -10.5876,-8.0742 -19.49967,-25.37403 -21.09546,-40.94983 -0.53056,-5.1786 -0.39909,-5.78245 1.83769,-8.44071 3.74473,-4.45037 3.29465,-4.61624 18.23856,6.72144 4.04279,3.06719 10.32743,7.00854 13.96585,8.75856 7.69401,3.70066 20.40353,6.56598 29.19849,6.58268 5.62246,0.0107 7.09906,-0.42468 16.92186,-4.98928 44.55013,-20.70216 93.03286,-23.84399 135.00816,-8.74893 3.6715,1.32034 12.08599,4.85401 18.69887,7.85261 l 12.02343,5.45199 8.90624,-0.0937 c 16.03523,-0.16879 31.49055,-5.94028 44.90163,-16.76765 9.53283,-7.69628 10.76139,-8.25603 13.7798,-6.27828 1.29098,0.84588 2.59482,2.5244 2.89741,3.73004 1.52957,6.09432 -2.15101,20.89158 -7.86422,31.61694 -3.19438,5.99676 -10.72824,14.70485 -14.44114,16.69194 -3.48038,1.86264 -2.91093,4.28656 3.17871,13.53059 14.88181,22.59048 19.1932,37.40241 18.29744,62.86145 -0.56705,16.11661 -1.63552,20.9079 -7.38082,33.09735 -2.16655,4.59663 -3.93918,9.17139 -3.93918,10.16611 0,0.99473 2.57523,5.65025 5.72272,10.34559 6.44132,9.60896 10.74182,18.55952 15.21305,31.66267 5.38229,15.77312 6.07786,20.38146 6.1211,40.55394 0.035,16.32367 -0.17743,19.05974 -2.00523,25.82809 -4.25568,15.75886 -13.0654,35.05532 -21.41121,46.89826 -5.41149,7.67907 -16.95707,20.8939 -20.39086,23.33898 -2.46035,1.75191 -2.68539,1.77022 -3.95815,0.32183 z M 383.49035,598.59788 c 1.51171,-0.92184 3.57079,-3.42526 4.57573,-5.56318 3.9229,-8.34561 16.29245,-55.31304 16.25767,-61.73069 -0.0346,-6.3917 -5.37179,-14.74207 -9.42241,-14.74207 -2.43253,0 -7.58331,6.53034 -11.43032,14.49178 -7.44102,15.39929 -13.08229,38.14678 -13.3027,53.64096 -0.0985,6.92255 0.16383,8.46248 1.92359,11.29248 2.96272,4.76458 6.52741,5.58105 11.39844,2.61072 z m 294.38045,0.14256 c 1.75506,-1.03674 2.927,-2.71066 3.58537,-5.12109 1.22146,-4.47203 0.33665,-22.3043 -1.5695,-31.63162 -4.17193,-20.41435 -16.98251,-45.42579 -23.26659,-45.42579 -2.54049,0 -7.07473,5.45723 -8.3152,10.00783 -1.2792,4.69264 -0.497,9.12351 5.54423,31.40619 7.24687,26.72961 10.39641,35.77379 13.66459,39.23906 3.29231,3.49087 6.28394,3.93148 10.3571,1.52542 z"
         id="path2" />
    </g>
    <g
       id="g19"
       style="display:inline;fill:#4f1eb0;fill-opacity:1">
      <path
         style="display:inline;fill:#4f1eb0;stroke-width:0.890624;fill-opacity:1"
         d="m 468.93681,824.57703 c -2.25561,-1.77426 -2.41518,-2.31397 -2.07492,-7.01798 0.45748,-6.32463 4.25829,-12.9937 11.69138,-20.51416 4.76358,-4.81959 10.62705,-8.34433 20.41885,-12.27449 1.4936,-0.5995 2.44921,-1.65789 2.44921,-2.71264 0,-2.03254 0.0217,-2.02721 -18.4325,-4.53014 -7.44374,-1.00958 -20.46912,-3.24135 -28.94528,-4.95948 -8.47617,-1.71812 -16.23628,-2.92274 -17.24469,-2.67691 -1.14641,0.27946 -2.61583,2.17803 -3.92123,5.06645 -3.23822,7.16509 -13.25581,17.13608 -20.91948,20.82216 -9.72166,4.67593 -16.35633,6.07076 -26.54292,5.58025 -6.71464,-0.32333 -9.09091,-0.78374 -10.46545,-2.02767 -3.82855,-3.4648 -1.36991,-11.39697 5.96226,-19.23565 5.27565,-5.6401 10.72136,-9.00085 19.42347,-11.98699 7.64291,-2.62267 10.26964,-4.29913 8.86806,-5.65988 -0.46885,-0.45519 -7.06455,-3.98543 -14.65712,-7.84497 -7.59257,-3.85954 -18.09195,-9.50169 -23.33196,-12.5381 -5.24001,-3.03642 -9.94918,-5.52075 -10.46484,-5.52075 -0.51564,0 -2.5015,1.56396 -4.413,3.47547 -4.10224,4.10224 -12.77277,8.41094 -19.79717,9.83794 -5.16645,1.04955 -15.45805,0.25149 -22.14919,-1.71756 -7.82089,-2.30151 -14.24999,-8.24258 -14.24999,-13.16827 0,-5.57717 10.5553,-11.72061 23.39832,-13.61837 3.54067,-0.52318 7.74012,-1.14487 9.33211,-1.38151 1.96474,-0.29206 2.89489,-0.91797 2.89563,-1.9485 0.002,-2.33195 -16.46348,-17.99675 -18.90406,-17.98515 -1.11469,0.005 -4.03061,0.63503 -6.47982,1.39939 -5.6609,1.76669 -18.13924,1.99876 -24.49216,0.45551 -7.70767,-1.87235 -14.67264,-6.03572 -20.47632,-12.23987 -7.38539,-7.895 -9.018,-15.1889 -4.16122,-18.59072 2.54417,-1.78201 14.35034,-1.70388 22.41098,0.14831 9.72962,2.23569 12.91405,2.49284 12.91405,1.04285 0,-0.6838 -2.032,-4.43312 -4.51554,-8.33182 -2.48355,-3.8987 -5.49616,-8.99226 -6.69469,-11.31902 l -2.17914,-4.23046 -5.99671,-0.0132 c -10.75246,-0.0236 -21.62987,-3.66003 -31.72587,-10.60626 -10.27858,-7.07185 -20.19681,-22.93364 -20.86083,-33.3618 -0.45506,-7.14667 0.53955,-8.06412 8.59761,-7.93058 7.08528,0.11742 13.17741,2.2361 22.42872,7.80007 3.66158,2.20218 7.20388,4.01064 7.87178,4.0188 1.73919,0.0213 1.12908,-2.32673 -5.81081,-22.36274 l -6.05426,-17.47915 -8.16005,-0.42683 c -10.66026,-0.5576 -17.9139,-3.76904 -24.87364,-11.01243 -7.25421,-7.54987 -9.62961,-13.10446 -10.04688,-23.49351 -0.30122,-7.49949 -0.13016,-8.75807 1.45661,-10.71718 1.44375,-1.78251 2.55896,-2.20305 5.66132,-2.13485 4.98811,0.10965 9.59032,2.51766 17.59709,9.20732 3.55676,2.97168 7.03167,5.40305 7.72203,5.40305 1.56742,0 1.59181,-2.22182 0.23664,-21.55385 l -1.04267,-14.87418 -4.3323,-0.92911 c -9.84974,-2.11239 -20.1452,-9.79245 -24.29755,-18.12512 -1.93109,-3.8752 -2.26202,-5.74208 -2.26202,-12.7607 0,-7.82094 0.11431,-8.31134 2.34667,-10.06732 5.1587,-4.05783 11.23213,-1.7802 21.20188,7.95101 4.01477,3.91873 7.74212,7.12496 8.28299,7.12496 1.06275,0 2.08539,-2.77217 4.10682,-11.1328 2.46467,-10.19384 2.60532,-12.02342 0.9243,-12.02342 -2.72065,0 -14.20295,-12.81788 -17.64418,-19.69648 l -3.18725,-6.37094 v -12.59622 c 0,-9.66675 0.30587,-13.0329 1.31516,-14.47387 4.4018,-6.28445 15.90991,-0.38355 24.65909,12.6442 2.12391,3.16255 4.29943,5.75209 4.83449,5.75453 0.53506,0.002 2.48804,-3.302 4.33995,-7.34321 1.85191,-4.04121 5.52214,-11.90571 8.15606,-17.47667 2.63392,-5.57097 4.78615,-10.58073 4.78273,-11.1328 -0.003,-0.55208 -1.96919,-3.88448 -4.36838,-7.40534 -7.73318,-11.34861 -10.85153,-23.6375 -9.17735,-36.16639 1.03249,-7.72682 2.38637,-10.91678 5.66163,-13.33982 2.04063,-1.50965 2.76729,-1.60278 5.49133,-0.70377 6.49951,2.14504 15.78161,13.03581 18.93972,22.22214 1.74093,5.06402 2.76726,4.66481 9.56211,-3.71943 5.12726,-6.32658 5.22266,-8.04633 0.94598,-17.05182 -3.20355,-6.74574 -3.22843,-6.88769 -2.78805,-15.90101 0.68218,-13.96207 5.54558,-24.33583 13.50123,-28.79842 4.12135,-2.31181 5.97208,-1.92346 9.39112,1.97061 3.56631,4.06181 4.49226,8.03313 4.4981,19.2919 0.004,7.43012 0.2736,9.57421 1.20446,9.57421 0.65971,0 5.85098,-3.97301 11.53615,-8.82892 5.68518,-4.8559 11.77749,-9.92787 13.53847,-11.27103 4.89172,-3.7311 5.07298,-4.58055 2.62348,-12.29408 -4.77778,-15.04531 -1.35678,-33.58777 7.76113,-42.06691 3.87259,-3.60127 5.25949,-4.01179 8.39623,-2.48519 5.33561,2.59676 10.31384,13.59261 11.9073,26.30069 0.50724,4.04527 1.34049,7.77328 1.85166,8.28446 0.95466,0.95466 9.64597,-3.05706 14.13955,-6.5265 2.0598,-1.59035 2.10755,-1.86471 1.15242,-6.62066 -1.16854,-5.8186 -0.28334,-12.80179 2.3884,-18.84171 3.87837,-8.7677 17.23207,-19.16568 24.61369,-19.16568 3.70862,0 7.14704,2.76565 8.48729,6.82663 1.28538,3.89476 0.55399,12.5811 -1.37311,16.30771 -0.741,1.43292 -1.34726,3.42677 -1.34726,4.43078 0,2.40395 1.69872,2.31116 13.29965,-0.72644 l 9.29184,-2.43299 1.57248,-7.30964 c 2.01407,-9.3623 6.71817,-18.28388 12.83549,-24.34323 7.58758,-7.51567 18.18938,-12.07389 22.59646,-9.71529 5.06373,2.71003 5.78534,11.89425 1.5857,20.18184 -2.7761,5.47837 -10.43398,12.78308 -16.72405,15.95275 -6.43051,3.24044 -9.72323,5.63232 -9.72323,7.06306 0,0.64702 3.01209,2.60684 6.69353,4.35515 14.65879,6.96143 24.08646,21.25734 19.6615,29.81426 -2.53121,4.89481 -10.00995,4.98256 -19.66235,0.2307 -7.03637,-3.46399 -11.93081,-8.83196 -16.13954,-17.70102 l -3.13034,-6.59657 -3.08665,0.57906 c -4.99505,0.93708 -24.96475,7.88911 -35.54704,12.37497 -12.01645,5.09379 -19.37876,9.24126 -18.91135,10.65348 0.19343,0.5844 2.12292,1.39084 4.28778,1.79209 14.79836,2.74284 22.94011,5.9709 28.57181,11.32821 4.51846,4.29831 4.53757,7.07849 0.0791,11.51194 -4.01045,3.98795 -11.34955,6.89842 -20.90836,8.29163 -13.4249,1.9567 -25.94491,-1.46495 -38.72201,-10.58249 -4.10884,-2.932 -6.26282,-3.93513 -7.66519,-3.56971 -5.23387,1.36381 -42.55414,37.25241 -52.55269,50.53669 -7.43056,9.8724 -6.78721,11.55718 2.86237,7.49573 14.36986,-6.0482 27.70082,-3.76962 27.70082,4.73472 0,7.23626 -10.91279,19.75789 -21.96338,25.20139 -5.91805,2.91522 -6.34861,2.98793 -20.27362,3.42379 l -14.22716,0.44531 -3.81764,7.12499 c -4.54789,8.48789 -11.59162,24.93144 -12.00804,28.0327 -0.44918,3.34529 2.01394,3.24247 7.43132,-0.31023 5.77973,-3.79032 13.99572,-6.28574 18.13727,-5.50878 9.75025,1.82915 8.38389,16.31452 -2.57236,27.27077 -6.9505,6.9505 -12.80705,9.24623 -28.3497,11.1129 l -4.16683,0.50045 -1.84488,7.85817 c -1.01469,4.322 -1.84488,8.30955 -1.84488,8.86122 0,1.75792 2.8333,1.08512 7.18203,-1.70545 5.20158,-3.33785 13.13344,-6.19776 17.18921,-6.19776 1.67242,0 3.98692,0.76681 5.14334,1.70405 1.75267,1.42047 2.09243,2.495 2.04164,6.45702 -0.0771,6.01259 -2.65515,11.85234 -7.60144,17.21843 -4.89492,5.31037 -9.95882,8.24163 -18.4683,10.69049 -6.64711,1.91291 -6.83032,2.04113 -7.12988,4.98963 -0.50548,4.97525 0.85996,28.03756 1.73984,29.38589 0.6332,0.97033 2.05758,-0.0727 6.37125,-4.66557 6.12514,-6.52157 9.94896,-9.39465 14.0804,-10.57954 6.5003,-1.86425 10.16088,3.23594 9.57577,13.34168 -0.60979,10.53195 -7.202,21.30794 -17.78969,29.08003 -2.54934,1.87139 -4.31856,3.8667 -4.31856,4.87046 0,4.65626 11.50497,35.96551 19.22712,52.3241 5.86494,12.42426 6.91158,12.68124 9.68731,2.37847 3.47651,-12.90389 9.64497,-22.02155 17.83946,-26.36872 4.88948,-2.59386 6.24332,-2.01228 9.24691,3.97232 1.57704,3.1422 2.226,6.20029 2.54067,11.97234 0.79036,14.4976 -3.55585,26.30689 -13.95958,37.93025 -3.77716,4.21995 -6.28505,7.80821 -6.28505,8.99257 0,3.45614 19.03746,30.00149 27.15056,37.85805 4.21434,4.08107 4.87954,2.99466 4.9016,-8.00532 0.0137,-6.82308 0.35577,-9.01662 1.76725,-11.33155 3.74729,-6.14587 10.0638,-4.62596 19.36962,4.66082 11.01245,10.98992 15.9071,24.60122 13.776,38.30899 -0.56424,3.62934 -0.79569,7.19871 -0.51431,7.93194 0.58669,1.52889 11.5928,8.75858 21.32597,14.00858 8.16436,4.40381 8.75629,3.67801 4.50725,-5.52656 -8.56162,-18.54674 -5.108,-28.03111 8.58583,-23.5785 15.27503,4.96674 28.94124,20.01343 33.14989,36.49849 0.74535,2.91951 1.35519,6.39934 1.35519,7.73294 0,2.77488 -0.64684,2.50533 13.35936,5.56712 18.30274,4.00102 50.21029,8.88342 51.87885,7.93835 1.28921,-0.7302 0.65167,-3.89717 -0.89062,-4.42421 -12.31308,-4.20759 -23.4507,-13.02119 -27.77719,-21.98108 -3.99692,-8.27739 -4.27711,-11.26205 -1.33358,-14.20559 1.32676,-1.32675 3.25939,-2.47272 4.29474,-2.54659 10.09714,-0.72039 24.64521,5.84888 32.0294,14.46308 5.95448,6.94634 9.07961,13.51032 12.14923,25.51801 1.07329,4.19849 2.60735,5.01166 8.53411,4.52374 l 3.45741,-0.28463 2.0376,-8.01562 c 4.17623,-16.42865 10.4178,-24.62814 23.80683,-31.2748 6.45558,-3.20471 9.51358,-4.19253 14.12472,-4.56267 9.56434,-0.76773 12.68673,2.83252 10.05125,11.58953 -2.97173,9.87434 -9.78387,16.79023 -23.44553,23.80263 -5.03867,2.5863 -7.9238,4.60973 -8.13436,5.70486 -0.30788,1.60134 0.11843,1.66315 7.55865,1.09592 14.89385,-1.1355 50.54956,-7.06991 56.83404,-9.45927 1.70055,-0.64654 2.0725,-1.63556 2.55391,-6.79078 1.02061,-10.92953 9.69919,-25.59146 19.64177,-33.18358 9.4572,-7.22148 19.54488,-10.59837 24.2069,-8.10333 5.97752,3.19907 4.27722,15.05022 -4.03583,28.12994 -1.17392,1.84703 -0.78443,4.79376 0.63361,4.79376 0.93875,0 19.24891,-10.18728 23.83165,-13.25929 l 3.5625,-2.38808 0.44531,-13.77395 c 0.43856,-13.56519 0.49382,-13.8755 3.64552,-20.4747 5.34192,-11.18516 17.32782,-22.24453 24.10814,-22.24453 1.09163,0 3.10886,1.07694 4.48273,2.39319 2.47202,2.36836 2.49795,2.507 2.49795,13.35936 0,6.03139 0.23871,10.96617 0.53048,10.96617 1.62924,0 6.31322,-4.5269 12.20839,-11.79897 7.63707,-9.42081 20.21422,-27.74682 20.21422,-29.45388 0,-0.63017 -2.97731,-4.61156 -6.61623,-8.84754 -11.71135,-13.63284 -13.90653,-19.25431 -13.79968,-35.33851 0.0788,-11.85354 1.18977,-16.51297 4.53257,-19.00873 l 2.3705,-1.76983 4.08218,1.97615 c 7.63831,3.69765 15.04546,14.85168 18.32217,27.59038 0.92412,3.59267 2.06678,6.91869 2.53924,7.39114 1.15889,1.15889 4.23379,-4.26208 10.22375,-18.02414 9.71763,-22.32654 17.14834,-43.95472 16.06832,-46.76923 -0.27135,-0.70711 -1.78366,-2.08309 -3.36069,-3.05776 -4.82575,-2.98248 -12.93545,-12.18574 -15.31197,-17.37672 -1.23845,-2.70513 -2.6797,-7.50119 -3.20279,-10.6579 -0.88001,-5.31069 -0.79222,-6.05685 1.17499,-9.98736 2.93894,-5.87202 5.51583,-6.61092 11.99694,-3.44001 3.36399,1.64584 6.32829,4.11447 9.46153,7.87945 2.50952,3.01549 4.99226,5.4827 5.51722,5.4827 2.25803,0 3.37352,-5.37061 3.8549,-18.55979 l 0.49416,-13.53926 -5.6305,-1.16296 c -15.666,-3.23576 -27.16328,-14.72662 -28.28738,-28.27158 -0.34345,-4.13847 -0.15417,-4.70894 2.17147,-6.54457 3.7889,-2.99058 9.63636,-2.21865 19.80716,2.61477 5.44434,2.58728 8.4614,3.58321 9.05543,2.98918 0.59403,-0.59403 0.43114,-3.09457 -0.48887,-7.50515 -2.14932,-10.30378 -1.73653,-9.73149 -7.01935,-9.73149 -6.77285,0 -14.5596,-1.63 -19.32668,-4.04567 -14.27959,-7.23601 -23.18591,-28.25564 -13.98774,-33.0122 4.18004,-2.16159 9.6341,-1.13284 18.91785,3.56829 4.45207,2.25444 8.43992,4.09899 8.8619,4.09899 2.46474,0 -5.04599,-20.43447 -12.27565,-33.3984 -2.78439,-4.99285 -3.17812,-5.33261 -5.99601,-5.17404 -15.2518,0.85822 -22.79639,0.49408 -27.8125,-1.34237 -11.66848,-4.27198 -22.56917,-14.88818 -25.56942,-24.90211 -1.42804,-4.76639 0.16342,-7.43162 5.70021,-9.54614 3.37684,-1.28962 4.86248,-1.36545 10.28108,-0.52473 3.48362,0.54052 8.98579,1.98092 12.22704,3.20093 3.24125,1.22 6.04585,2.21818 6.23245,2.21818 0.18661,0 0.33542,-0.90175 0.33072,-2.0039 -0.0145,-3.38083 -8.54922,-13.77591 -23.98971,-29.21875 -16.36714,-16.36961 -31.47953,-29.33978 -34.18568,-29.33978 -0.97275,0 -3.80956,1.57354 -6.30403,3.49676 -10.23225,7.889 -24.20397,12.28711 -36.07209,11.35499 -14.22945,-1.11757 -27.68979,-7.99933 -27.68979,-14.15673 0,-2.61964 6.04837,-8.47867 11.63409,-11.26989 4.57787,-2.28759 10.54125,-3.9659 22.14114,-6.23133 6.69927,-1.30835 3.37439,-4.00942 -14.23424,-11.56359 -12.81721,-5.49864 -37.51094,-13.72456 -40.03082,-13.33498 -1.34128,0.20737 -2.45914,1.71886 -3.89786,5.27042 -1.10947,2.73881 -3.35525,6.84283 -4.99063,9.12004 -7.1689,9.98251 -23.48291,16.2591 -29.52686,11.36004 -1.78817,-1.44944 -2.09526,-2.48157 -2.05366,-6.90234 0.0299,-3.17699 0.70798,-6.58319 1.74399,-8.76054 2.63506,-5.53803 9.97422,-12.12841 17.70371,-15.89747 9.1007,-4.4377 9.0006,-5.78738 -0.79351,-10.69913 -13.81015,-6.92579 -21.07596,-16.8019 -21.25062,-28.88505 -0.0611,-4.22681 0.24168,-5.10455 2.40175,-6.96256 1.54837,-1.33186 3.59336,-2.12604 5.47446,-2.12604 4.31869,0 14.35079,5.52703 19.87791,10.95144 5.38701,5.28689 11.06354,15.7201 12.61244,23.18112 0.55041,2.65136 1.50113,5.50494 2.11268,6.3413 1.07775,1.4739 16.93062,6.72922 20.29896,6.72922 2.06438,0 2.11636,-1.72838 0.2418,-8.04069 -0.92584,-3.11764 -1.30392,-6.96002 -1.0781,-10.95651 0.30914,-5.471 0.63419,-6.40137 2.92479,-8.37167 2.10879,-1.8139 3.25353,-2.14039 6.30052,-1.79695 8.38238,0.94482 19.37761,9.52667 23.94257,18.68737 2.04379,4.10134 2.2892,5.65023 2.2892,14.44793 v 9.85411 l 7.04348,4.221 c 3.87392,2.32156 7.45394,4.22101 7.9556,4.22101 1.14344,0 1.62334,-1.7181 2.36327,-8.46093 0.89467,-8.15298 2.20913,-12.86318 5.16974,-18.52511 2.8976,-5.54143 6.34289,-8.63892 9.60894,-8.63892 3.15977,0 10.0481,7.75296 12.36223,13.91399 4.08473,10.87493 4.33694,19.18399 0.97722,32.19536 l -1.67235,6.47659 5.48263,4.8284 c 11.6778,10.28437 23.29331,20.06995 23.82305,20.06995 0.30496,0 0.83308,-4.50879 1.17362,-10.01952 0.34053,-5.51074 1.06795,-11.5417 1.61648,-13.40213 1.13086,-3.83547 6.0547,-8.64082 8.85389,-8.64082 3.33502,0 8.01159,3.72594 11.55215,9.20387 4.69984,7.27157 6.11604,12.57247 6.09067,22.79759 -0.0177,7.13187 -0.39345,9.39359 -2.30363,13.86568 -1.25537,2.93906 -2.71041,6.37686 -3.23341,7.63956 -0.83615,2.01878 -0.49195,2.97166 2.85236,7.89637 6.75727,9.95052 8.9008,11.09023 10.56312,5.61639 1.87593,-6.17722 9.53269,-16.91541 14.15538,-19.85214 6.5126,-4.13738 8.13272,-4.28759 11.0484,-1.02438 1.36204,1.52439 2.9299,4.45565 3.48413,6.5139 1.53361,5.69537 1.24696,23.5744 -0.45472,28.36206 -1.55509,4.37528 -8.56751,16.06417 -10.69797,17.83229 -2.25199,1.869 -1.59078,4.32078 4.79664,17.78606 3.37827,7.1217 7.03844,14.87142 8.1337,17.22158 2.47889,5.31905 3.91251,5.18013 7.33504,-0.71075 6.94933,-11.96126 19.40347,-19.2313 24.02953,-14.02711 3.41931,3.84661 4.38083,16.29399 1.98069,25.64097 -2.7481,10.70206 -8.13943,18.51301 -18.58348,26.92375 -2.82851,2.27784 -2.83329,2.11864 0.49584,16.52065 1.99338,8.62345 3.63531,10.47121 6.01916,6.77369 3.26837,-5.0695 10.44379,-11.65966 15.38191,-14.12727 5.7089,-2.85276 6.99924,-2.77031 10.74102,0.68642 2.21464,2.04592 2.44921,2.84865 2.44921,8.3813 0,8.34767 -1.32472,12.94963 -5.21486,18.11589 -4.31478,5.73019 -11.53809,10.58629 -19.2773,12.95979 -3.4289,1.05159 -6.34894,2.00323 -6.48899,2.11476 -0.14004,0.11152 -0.64195,7.16866 -1.11535,15.68251 -0.4734,8.51385 -1.09211,16.58221 -1.3749,17.92969 -0.94117,4.48461 1.75284,3.89303 8.42583,-1.85023 10.46617,-9.00795 16.72483,-11.92221 21.42396,-9.97576 3.72753,1.54399 4.84954,5.05111 4.27901,13.37502 -0.59584,8.69305 -3.35821,15.13364 -9.14365,21.31875 -7.62247,8.14902 -14.76804,11.41453 -28.80337,13.16305 l -5.67249,0.70667 -5.09683,14.6953 c -2.80326,8.08241 -5.76138,16.24717 -6.5736,18.1439 -1.73831,4.05938 -1.90313,6.79357 -0.40952,6.79357 0.58699,0 3.76789,-1.81194 7.06869,-4.02653 10.91084,-7.32037 23.71176,-10.87131 29.11598,-8.07667 3.46438,1.7915 4.34482,4.88148 2.92605,10.26936 -5.83961,22.17648 -29.66349,41.01346 -51.88464,41.02398 l -5.6605,0.003 -7.34765,11.42917 c -7.11496,11.06721 -8.56231,14.40612 -6.23437,14.38209 0.61231,-0.006 3.71836,-0.84011 6.90234,-1.85287 6.06665,-1.92967 21.20167,-3.27242 25.29777,-2.24438 3.24783,0.81517 5.87407,3.66347 5.87407,6.37078 0,8.70878 -15.48109,22.01624 -30.01687,25.80233 -6.70675,1.74689 -11.82888,1.60489 -19.41276,-0.53818 -3.42891,-0.96893 -7.0786,-1.9835 -8.11044,-2.2546 -1.44789,-0.3804 -4.14126,1.47621 -11.80077,8.1346 -5.97816,5.19679 -9.9247,9.28511 -9.9247,10.28121 0,1.78152 1.1734,2.09771 11.43337,3.08088 12.05868,1.15554 22.36801,5.99997 24.71326,11.61295 1.63404,3.91081 0.66209,6.3729 -4.13769,10.48133 -5.98738,5.12497 -10.92979,6.39517 -24.88395,6.39517 -11.27953,0 -12.29918,-0.14561 -16.48048,-2.35339 -2.45138,-1.29436 -6.70014,-4.20002 -9.44171,-6.45702 -2.74155,-2.257 -5.34485,-4.10149 -5.78512,-4.09887 -0.44025,0.003 -5.40944,2.64566 -11.04264,5.87342 -5.6332,3.22776 -16.36602,9.10132 -23.85072,13.05236 -7.4847,3.95103 -13.46692,7.62029 -13.29382,8.15391 0.17311,0.53361 3.29401,1.97725 6.93536,3.2081 12.91411,4.36523 22.58154,11.98975 27.68648,21.83583 l 2.93957,5.66965 -1.85044,2.49547 c -2.42506,3.27038 -6.50771,4.61364 -14.15235,4.65631 -7.94345,0.0444 -17.32223,-1.93938 -23.53116,-4.97713 -6.12964,-2.99894 -16.73489,-13.37938 -20.47899,-20.04486 -1.55975,-2.77677 -3.40228,-5.51872 -4.09451,-6.09321 -0.9779,-0.81159 -4.19576,-0.43033 -14.42849,1.70951 -13.35502,2.79276 -31.93353,5.6933 -43.65892,6.81614 -10.04964,0.96237 -12.33786,4.24429 -4.56067,6.54123 11.71952,3.46129 22.96729,12.58391 27.94479,22.6649 3.96052,8.02132 4.71953,12.23866 2.74499,15.25219 -1.36523,2.0836 -1.97102,2.24381 -8.48413,2.24381 -6.56485,0 -7.54719,-0.26593 -15.34274,-4.15343 -6.1604,-3.07209 -9.75062,-5.59674 -13.79,-9.69715 -6.12559,-6.21815 -11.93765,-16.72578 -13.76294,-24.88205 l -1.11391,-4.97748 -6.685,0.25742 -6.68499,0.25743 -1.15043,5.07689 c -3.92032,17.30049 -19.28704,33.18051 -36.42846,37.64528 -7.11526,1.85329 -10.40899,1.71501 -13.2991,-0.55836 z"
         id="path13" />
    </g>
    <g
       id="g18"
       style="display:inline;fill:#4f1eb0;fill-opacity:1">
      <path
         style="display:inline;fill:#4f1eb0;stroke-width:0.890624;fill-opacity:1"
         d="m 312.80212,516.06257 c -6.54875,-4.58693 -5.96618,-15.21589 1.01556,-18.52895 5.98495,-2.84004 10.3121,-1.52405 13.85892,4.21483 2.90935,4.70743 2.45344,8.18954 -1.60342,12.2464 -2.96759,2.96759 -4.01258,3.45772 -7.37214,3.45772 -2.15293,0 -4.80744,-0.6255 -5.89892,-1.39 z"
         id="path14" />
      <path
         style="display:inline;fill:#4f1eb0;stroke-width:0.890624;fill-opacity:1"
         d="m 325.16219,447.47294 c -1.49826,-1.2607 -3.18384,-3.82663 -3.74574,-5.70206 -0.8688,-2.89982 -0.7713,-3.92245 0.65189,-6.8367 4.5245,-9.26483 17.07289,-8.02374 19.82988,1.96127 0.80197,2.90448 0.6568,3.87208 -1.03165,6.87628 -3.52103,6.26482 -10.65855,7.94699 -15.70438,3.70121 z"
         id="path15" />
      <path
         style="display:inline;fill:#4f1eb0;stroke-width:0.890624;fill-opacity:1"
         d="m 730.10025,516.05839 c -3.08036,-1.67138 -5.13228,-5.58917 -5.13228,-9.79917 0,-4.52388 5.51277,-10.18319 9.91474,-10.1783 6.48531,0.007 12.12892,6.21848 11.14715,12.26841 -1.1624,7.16308 -9.49972,11.19788 -15.92961,7.70906 z"
         id="path16" />
      <path
         style="display:inline;fill:#4f1eb0;stroke-width:0.890624;fill-opacity:1"
         d="m 717.23185,448.02822 c -3.54882,-2.16387 -4.73353,-4.3356 -4.72929,-8.66936 0.0115,-11.72541 14.97874,-14.81999 20.04466,-4.14437 1.40639,2.96374 1.40481,3.40243 -0.0257,7.14824 -2.59761,6.80174 -9.33301,9.29751 -15.28964,5.66549 z"
         id="path17" />
      <path
         style="display:inline;fill:#4f1eb0;stroke-width:0.890624;fill-opacity:1"
         d="m 520.90036,248.92188 c -2.90046,-1.57601 -5.52455,-7.75234 -4.76429,-11.21375 0.63359,-2.88473 5.64593,-7.63862 8.92042,-8.46046 4.24361,-1.06508 9.94962,2.71067 11.90793,7.87964 3.09134,8.15965 -7.90071,16.23024 -16.06406,11.79457 z"
         id="path18" />
    </g>
  </g>
</svg>
