<?xml version="1.0" encoding="UTF-8" standalone="no"?>
<!-- Created with Inkscape (http://www.inkscape.org/) -->

<svg
   version="1.1"
   id="svg1"
   width="1024"
   height="1024"
   viewBox="0 0 1024 1024"
   sodipodi:docname="UniugglaLogoBitmap.svg"
   inkscape:version="1.3.2 (091e20e, 2023-11-25, custom)"
   xmlns:inkscape="http://www.inkscape.org/namespaces/inkscape"
   xmlns:sodipodi="http://sodipodi.sourceforge.net/DTD/sodipodi-0.dtd"
   xmlns="http://www.w3.org/2000/svg"
   xmlns:svg="http://www.w3.org/2000/svg">
  <defs
     id="defs1" />
  <sodipodi:namedview
     id="namedview1"
     pagecolor="#ffffff"
     bordercolor="#111111"
     borderopacity="1"
     inkscape:showpageshadow="0"
     inkscape:pageopacity="0"
     inkscape:pagecheckerboard="1"
     inkscape:deskcolor="#d1d1d1"
     inkscape:zoom="0.79394531"
     inkscape:cx="511.37023"
     inkscape:cy="512"
     inkscape:window-width="1920"
     inkscape:window-height="1009"
     inkscape:window-x="-8"
     inkscape:window-y="-8"
     inkscape:window-maximized="1"
     inkscape:current-layer="g1" />
  <g
     inkscape:groupmode="layer"
     inkscape:label="Image"
     id="g1">
    <path
       style="fill:#000000"
       d="m 467.78627,828.44703 c -3.84812,-2.08859 -5.43336,-7.82013 -3.87482,-14.00966 1.80639,-7.17379 4.786,-12.26854 10.96366,-18.74641 6.1342,-6.43229 11.8925,-10.24282 18.36767,-12.15471 4.15492,-1.2268 4.12736,-1.23618 -7.28604,-2.47867 -12.84062,-1.39786 -28.57879,-4.10403 -40.23888,-6.91905 l -7.78214,-1.8788 -2.64604,5.62014 c -3.57244,7.58779 -13.05812,16.92288 -21.28968,20.95169 -14.66042,7.17531 -37.23207,8.30096 -42.25,2.10701 -2.16594,-2.67355 -2.26805,-8.76295 -0.22879,-13.64359 3.72268,-8.90961 15.13645,-18.50876 26.12709,-21.97325 2.94344,-0.92784 5.34054,-1.94229 5.3269,-2.25435 -0.0136,-0.31206 -5.30113,-3.11199 -11.75,-6.22207 -6.44886,-3.11008 -15.7752,-8.11748 -20.7252,-11.12756 l -9,-5.47287 -3.87999,3.4924 c -8.68567,7.818 -22.06786,11.35947 -35.66057,9.43721 C 306.82942,751.03482 297,744.09085 297,735.54193 c 0,-9.33759 9.86895,-15.40098 29.36226,-18.03991 l 4.86226,-0.65823 -2.86226,-3.01541 c -1.57424,-1.65848 -4.92425,-4.75202 -7.44446,-6.87453 l -4.58221,-3.85911 -4.91779,1.50026 c -2.70479,0.82514 -8.9678,1.53017 -13.9178,1.56674 -14.06971,0.10394 -23.76992,-3.52076 -33.14161,-12.38411 -12.01167,-11.36014 -12.4989,-23.76942 -1.05477,-26.86424 4.76011,-1.28727 15.42588,-0.6023 23.38591,1.50187 l 5.18952,1.37181 -3.27802,-5.14354 c -1.80291,-2.82894 -4.48208,-7.05603 -5.95371,-9.39353 l -2.6757,-4.25 -6.23581,-0.0119 c -17.29183,-0.0329 -34.4082,-9.91684 -45.07237,-26.02726 -7.642,-11.54482 -9.97198,-24.74324 -5.20889,-29.50632 2.0551,-2.05511 3.4212,-2.45455 8.39466,-2.45455 7.66017,0 17.6174,3.10335 24.22563,7.55036 2.87408,1.93412 4.69279,2.87458 4.04159,2.08993 -0.6512,-0.78465 -3.36326,-8.11221 -6.02681,-16.28346 l -4.8428,-14.85683 -8.37341,-0.58898 c -14.29917,-1.0058 -24.91471,-8.05736 -32.00086,-21.25713 -2.99296,-5.57516 -3.34094,-7.11452 -3.70021,-16.3687 l -0.39657,-10.2148 3.03519,-3.0352 c 5.50195,-5.50195 14.46588,-3.57102 25.6011,5.51477 l 5.91207,4.82395 -0.65496,-6.93695 c -0.36022,-3.81533 -0.65815,-10.36695 -0.66206,-14.55915 l -0.007,-7.62219 -4.076,-0.65178 c -10.61161,-1.69687 -23.09554,-11.78935 -26.33197,-21.28778 -2.05378,-6.02751 -2.09915,-18.43471 -0.0817,-22.33608 1.92845,-3.72921 4.32019,-4.97998 9.52278,-4.97998 5.90807,0 10.59835,2.5228 17.2867,9.29815 3.2009,3.24254 5.92586,5.73945 6.05547,5.54869 0.1296,-0.19076 1.0129,-3.69571 1.9629,-7.78877 1.65054,-7.11137 1.64807,-7.48372 -0.0555,-8.38279 -4.07556,-2.15092 -14.06625,-13.5247 -16.61789,-18.91842 -5.77231,-12.20167 -5.86818,-34.60462 -0.16906,-39.50686 3.22845,-2.77703 8.45215,-2.91674 14.00422,-0.37455 4.27258,1.95633 12.75331,10.39163 14.66426,14.58571 0.63622,1.39636 1.42433,2.53884 1.75135,2.53884 0.32701,0 1.66374,-2.8125 2.97049,-6.25 1.30676,-3.4375 4.47004,-10.35703 7.02951,-15.37673 l 4.65359,-9.12672 -2.83771,-3.37328 C 259.25998,364.80293 255.41234,350.21479 257.03609,334.32222 258.37089,321.25785 261.18698,317 268.49278,317 c 7.76327,0 15.92899,7.12293 22.15568,19.32635 2.75578,5.40092 3.24055,5.3273 7.74765,-1.17644 l 2.63688,-3.80501 -3.2665,-6.34039 c -3.14291,-6.10051 -3.26544,-6.77858 -3.23878,-17.92245 0.0251,-10.51047 0.28327,-12.13328 2.78982,-17.53987 5.21385,-11.24621 10.92001,-16.53139 17.85574,-16.53845 8.0442,-0.008 13.30217,8.74645 13.3178,22.1744 l 0.009,7.67813 2.63366,-2.17813 c 1.44852,-1.19798 6.88373,-5.75526 12.07825,-10.1273 l 9.44459,-7.94917 -2.00406,-5.05083 c -2.68971,-6.77887 -2.82135,-22.48079 -0.26006,-31.01901 C 353.84475,235.02319 361.05411,227 367.94301,227 c 7.72312,0 15.6093,13.46465 16.77944,28.6488 l 0.55092,7.1488 5.85348,-3.1488 c 4.16667,-2.2414 5.68384,-3.58106 5.26479,-4.6488 -5.4231,-13.81792 5.64434,-34.9427 21.97394,-41.94238 9.04759,-3.87825 16.49722,-1.58529 18.69632,5.75463 1.22363,4.08413 0.86807,17.28439 -0.55365,20.55408 -0.69681,1.60255 -0.54273,1.72256 1.09012,0.84911 1.0459,-0.55947 4.67268,-1.56222 8.05953,-2.22832 l 6.1579,-1.21109 1.23319,-6.53569 c 3.56383,-18.88755 18.35081,-34.55948 33.94192,-35.97323 4.97014,-0.45068 5.95495,-0.21749 8.56257,2.02746 2.82423,2.43142 2.94635,2.88261 2.94236,10.87107 -0.004,7.36043 -0.35031,8.96018 -2.9663,13.68977 -3.64426,6.58866 -10.08585,12.4165 -18.13115,16.40363 l -6.1016,3.02387 6.85882,3.43133 c 11.27689,5.6416 18.66459,16.05702 18.78852,26.48871 0.11171,9.40301 -3.62038,12.46689 -14.03543,11.52249 -13.35022,-1.21056 -24.24728,-10.33479 -29.80688,-24.95762 l -1.02735,-2.70215 -14.78724,5.03633 c -8.13297,2.76999 -19.24473,7.13103 -24.6928,9.69121 l -9.90556,4.65488 5.90556,1.19584 c 10.37465,2.10079 17.33149,5.27827 22.53283,10.29169 4.3521,4.19488 4.87274,5.15783 4.87274,9.01246 0,3.63495 -0.55083,4.83527 -3.49175,7.60891 -6.64405,6.26614 -20.31783,9.95951 -33.9584,9.17234 -11.9515,-0.68969 -20.07743,-3.40928 -28.45902,-9.52469 l -6.82308,-4.97828 -10.38387,8.62088 c -12.74589,10.58186 -31.91476,29.55271 -38.11549,37.72172 l -4.60667,6.06896 5.16914,-1.78631 c 6.53137,-2.25707 18.63243,-2.43907 22.68916,-0.34126 3.74377,1.93598 4.97998,4.32108 4.97998,9.60818 0,9.27491 -9.94247,21.79737 -22,27.70881 -8.3763,4.10665 -20.03181,5.92656 -28.85548,4.50555 l -6.28357,-1.01194 -4.06835,8.08952 c -2.23759,4.44924 -5.52899,11.55182 -7.31422,15.78351 l -3.24587,7.69399 2.63375,-1.93829 c 3.70952,-2.73 13.38199,-5.95037 17.85876,-5.94594 5.56397,0.006 10.01616,3.09973 10.84917,7.54006 1.72437,9.19166 -1.45441,18.17852 -9.15314,25.87725 C 286.29783,451.54428 275.69411,456 265.8655,456 c -4.66192,0 -4.79541,0.0861 -5.81292,3.75 -1.69795,6.11404 -1.41792,6.27344 5.19742,2.95859 4.3989,-2.20423 8.09009,-3.25101 12.4628,-3.53432 5.83377,-0.37797 6.39808,-0.21723 9.25,2.63468 3.78099,3.78099 4.064,9.37166 0.90219,17.82235 -4.30051,11.49415 -14.81276,19.44311 -30.17951,22.82059 l -2.81452,0.6186 0.64105,10.71476 c 0.35258,5.89311 0.81546,11.27197 1.02863,11.95302 0.22753,0.72691 2.36395,-0.73037 5.17347,-3.5289 9.9098,-9.87102 20.71841,-11.13971 24.63254,-2.8913 3.82395,8.05838 1.20946,22.49996 -5.94147,32.81876 -2.59629,3.74644 -11.07582,11.25321 -13.69985,12.12821 -0.87795,0.29276 -0.5646,2.41634 1.15368,7.81844 3.87784,12.19162 10.90464,30.56514 15.34139,40.11434 l 4.16289,8.95977 2.14979,-6.3288 c 3.23856,-9.534 5.95744,-14.20408 11.49124,-19.73787 8.4648,-8.4648 15.89852,-8.86154 20.44058,-1.09092 1.64675,2.81729 2.11558,5.66426 2.40347,14.59529 0.59905,18.58376 -3.06163,29.2145 -14.13689,41.05399 l -6.03191,6.44812 7.73417,11.37079 c 4.2538,6.25394 10.1556,13.99452 13.11513,17.2013 l 5.38096,5.83051 0.0451,-7.29966 C 330.02009,672.64795 333.61129,667 340.25575,667 c 6.86099,0 19.47247,10.08651 25.00663,20 5.48439,9.82436 7.53438,22.30566 5.50908,33.54192 l -0.72855,4.04191 10.72855,6.47631 10.72854,6.47631 -2.2657,-4.54255 c -3.04015,-6.09527 -4.49132,-15.32569 -3.17688,-20.20714 1.46175,-5.42853 4.62768,-7.18886 11.72459,-6.51914 18.56459,1.75188 37.29436,21.00309 40.55,41.67893 l 1.0458,6.64162 12.18718,2.78797 c 11.78373,2.69567 34.84338,6.60378 38.93501,6.59863 1.27315,-0.002 0.3838,-0.81518 -2.44716,-2.23864 -6.41994,-3.22809 -15.61005,-12.58628 -18.53902,-18.8781 -2.90427,-6.23874 -3.34741,-14.22291 -0.97721,-17.60684 3.71704,-5.30682 15.35814,-4.78497 27.96339,1.25355 13.41584,6.42684 23.86223,20.39102 26.02039,34.78269 0.67591,4.50728 0.84855,4.71257 3.96305,4.71257 3.20215,0 3.27595,-0.10402 4.43418,-6.25 2.76628,-14.67882 12.37579,-27.13853 25.87464,-33.54911 6.25842,-2.97211 8.92688,-3.64965 15.79333,-4.01005 7.82473,-0.41069 8.39897,-0.29719 10.83845,2.14229 2.09547,2.09547 2.57596,3.52864 2.57596,7.68334 0,10.17802 -8.30021,22.10198 -20.0918,28.86357 -4.93763,2.83135 -5.15833,3.10201 -2.53654,3.11058 6.28301,0.0205 40.44065,-5.96852 48.78991,-8.55461 1.13446,-0.35139 1.88583,-2.16766 2.36848,-5.72533 2.91584,-21.49302 22.29127,-41.9634 41.15176,-43.47734 5.88888,-0.4727 6.36379,-0.34159 9.26266,2.55728 2.65269,2.65269 3.05213,3.75783 3.02971,8.38246 -0.0142,2.9298 -1.06096,8.36442 -2.32614,12.07692 -1.26517,3.7125 -2.09583,6.75 -1.8459,6.75 0.75524,0 11.41716,-6.15539 15.82551,-9.13646 l 4.12764,-2.79126 -0.94809,-4.78614 c -1.28787,-6.50146 -0.18497,-19.20144 2.22746,-25.64923 3.68815,-9.85746 12.0365,-19.38289 21.1821,-24.16868 5.4268,-2.83979 9.39402,-3.12958 12.553,-0.91695 3.5359,2.47665 4.61003,5.40482 5.18813,14.1433 l 0.54211,8.19457 5.73536,-6.73564 c 5.18478,-6.08904 16.47478,-21.87487 18.9421,-26.48509 0.80729,-1.50845 -0.0651,-2.92637 -4.92253,-8.00089 -9.75831,-10.19441 -13.45134,-18.48283 -14.82487,-33.2721 -0.78051,-8.40409 0.89357,-19.7541 3.56048,-24.13948 6.87023,-11.29719 26.36471,3.78106 32.01424,24.76182 l 1.20293,4.46731 2.02778,-3.95257 c 4.04106,-7.87683 11.15095,-25.33119 15.87408,-38.96993 l 4.82657,-13.93743 -2.90658,-1.4077 c -4.63686,-2.24569 -13.8713,-12.64202 -16.81994,-18.93623 -2.33756,-4.98981 -2.7084,-7.05842 -2.70897,-15.11108 -6.5e-4,-9.2728 0.0193,-9.34772 3.26513,-12.25 6.01019,-5.3741 15.07802,-3.14217 23.35034,5.74738 l 4.61613,4.96055 0.62788,-8.06404 c 1.17546,-15.09672 1.00951,-16.44423 -2.11013,-17.13372 -11.67121,-2.57955 -19.68743,-7.26312 -25.38504,-14.83151 -5.28163,-7.01582 -7.54024,-16.7451 -5.43046,-23.39244 1.95405,-6.15667 13.57562,-6.75403 24.46419,-1.2575 l 6.28715,3.17374 -0.72265,-3.3113 c -1.49776,-6.86296 -1.50471,-6.86858 -9.00113,-7.26879 -9.83363,-0.52499 -17.37108,-3.638 -24.267,-10.0224 -6.90723,-6.39488 -10.44994,-13.03027 -11.0038,-20.60977 -0.74238,-10.15961 3.78912,-14.57935 14.06379,-13.71691 2.94807,0.24745 7.90832,1.72474 11.3268,3.37341 l 6.08185,2.93316 -2.42095,-5.94942 c -2.62521,-6.45136 -9.94679,-21.39521 -11.32348,-23.112 -0.5891,-0.73463 -3.05591,-0.76298 -8.01226,-0.0921 -14.59423,1.97554 -29.06525,-2.70677 -39.32606,-12.72452 -9.99225,-9.75556 -13.41784,-21.21239 -8.16755,-27.31622 2.23422,-2.59743 3.04484,-2.83168 10.91803,-3.15501 5.55889,-0.22829 10.26487,0.16673 13.5866,1.14047 2.79508,0.81935 5.08197,1.25003 5.08197,0.95706 0,-0.89586 -9.01091,-11.30925 -16.96592,-19.60655 -7.19609,-7.50571 -24.68631,-23.29395 -31.96608,-28.85544 l -3.432,-2.62194 -4.068,3.29967 c -15.20487,12.33308 -40.28674,15.29038 -58.27184,6.87059 -12.75589,-5.97172 -14.02409,-16.40166 -2.87957,-23.68224 6.44175,-4.20831 12.3755,-6.53715 20.50598,-8.04804 l 6.42256,-1.1935 -10.47821,-4.67709 c -11.36404,-5.07248 -36.12735,-13.7001 -39.3822,-13.72089 -1.52779,-0.01 -2.45907,1.23665 -3.8499,5.15262 -2.35274,6.62427 -10.18576,14.97845 -17.31405,18.466 -3.59088,1.75685 -7.66331,2.80316 -12.16378,3.12517 -6.16573,0.44115 -7.02678,0.25922 -9.71129,-2.05191 -2.69778,-2.32254 -2.94145,-3.0691 -2.89515,-8.87036 0.0925,-11.58844 7.02851,-21.46971 19.41513,-27.65938 l 5.91847,-2.95749 -6.28415,-3.09367 c -8.23086,-4.05204 -14.46839,-9.64926 -18.12954,-16.26844 -2.61599,-4.72959 -2.96262,-6.32934 -2.9663,-13.68977 -0.004,-7.97805 0.12112,-8.44222 2.92617,-10.85715 2.54685,-2.19264 3.66111,-2.46992 8.51446,-2.11886 15.26398,1.10409 30.77874,16.95235 34.48016,35.2213 l 1.23369,6.08907 5.05959,1.64615 c 2.78278,0.90538 6.38743,1.93778 8.01033,2.29423 l 2.95074,0.64809 -1.30434,-6.29423 C 613.56523,220.2357 618.2804,211 628.01227,211 c 8.45784,0 22.43117,10.85052 27.31702,21.21211 3.04538,6.45846 4.43198,16.16534 2.9262,20.48484 -0.97397,2.79394 -0.80577,3.02045 4.86784,6.55528 l 5.87667,3.66135 0.0148,-4.70679 c 0.0317,-10.10633 4.19802,-22.14686 9.49677,-27.44561 11.49199,-11.492 26.99835,6.8508 26.83088,31.73882 -0.0388,5.76261 -0.65082,10.57399 -1.7015,13.37573 -0.90251,2.40665 -1.64093,4.94008 -1.64093,5.62985 0,0.68977 2.47044,3.11933 5.48986,5.39901 3.01942,2.27969 8.37845,6.84703 11.90896,10.14964 l 6.4191,6.00475 0.0656,-7.00393 c 0.0754,-8.05107 0.68451,-11.12493 3.2008,-16.1523 4.08514,-8.16178 12.9209,-9.233 19.905,-2.4132 11.65523,11.38102 15.17914,32.00556 8.06572,47.20659 l -3.04561,6.50832 2.18257,3.14777 c 1.20041,1.73127 2.9539,4.16451 3.89663,5.40719 l 1.71407,2.25943 2.98687,-6.3828 C 770.08749,324.31458 778.63191,317 786.55895,317 c 8.17718,0 12.14052,10.24101 11.24884,29.06625 -0.52683,11.12255 -3.13328,18.4772 -9.56922,27.00154 l -4.18684,5.54543 3.01357,5.94339 c 1.65746,3.26886 4.94611,10.10422 7.30812,15.18968 l 4.29455,9.2463 3.19652,-4.93307 c 7.56492,-11.67465 20.26201,-17.30495 26.6321,-11.80952 3.17126,2.73582 4.44796,7.80608 4.47955,17.7899 0.052,16.43974 -6.27151,29.54557 -18.79919,38.96226 l -3.32304,2.49784 1.69156,7.5 c 0.93036,4.125 1.80773,7.632 1.94971,7.79333 0.14198,0.16134 2.99126,-2.43977 6.33172,-5.78023 6.67617,-6.67617 11.08555,-9.0131 17.00612,-9.0131 7.92641,0 11.96915,6.90802 10.77641,18.4141 -0.81302,7.84293 -4.36427,15.31518 -9.72824,20.46937 -4.69571,4.51206 -13.01019,8.93865 -18.44653,9.82085 -3.89034,0.63131 -4.04859,1.27865 -4.78757,19.58357 l -0.43551,10.78789 4.90677,-4.58972 c 5.80439,-5.42932 13.92356,-9.46267 19.07589,-9.47629 7.92937,-0.021 11.53741,7.75873 9.68025,20.87267 -1.84675,13.04042 -9.09626,23.17848 -20.78463,29.0662 -6.20778,3.127 -15.48861,5.37005 -20.18211,4.87774 l -3.06365,-0.32136 -4.90351,14.87268 c -2.69693,8.17998 -5.42945,15.50641 -6.07227,16.28096 -0.64282,0.77455 1.18276,-0.17418 4.05684,-2.1083 6.46906,-4.35335 16.52839,-7.55036 23.7571,-7.55036 4.76881,0 5.86421,0.39262 8.5284,3.05681 2.89559,2.8956 3.02819,3.37249 2.51408,9.04216 -1.33778,14.75334 -14.80533,32.49468 -30.39495,40.0405 -8.36795,4.05031 -22.78986,7.48406 -26.49472,6.30818 -1.40915,-0.44724 -2.9586,1.23421 -7.13283,7.7405 -2.93294,4.57152 -5.63997,8.83007 -6.01563,9.46344 -0.47296,0.79744 0.75796,0.71792 4.0026,-0.25857 2.57709,-0.77559 8.34889,-1.69174 12.82623,-2.0359 13.43245,-1.0325 19.48456,2.19198 19.48456,10.3811 0,5.39149 -1.89897,9.17038 -7.75368,15.42953 -5.24496,5.60729 -12.43139,9.96619 -20.17782,12.23879 -6.99966,2.05352 -21.10145,2.06981 -27.96244,0.0323 -5.94055,-1.76416 -5.70576,-1.87472 -16.52757,7.78248 l -4.9215,4.39187 9.7458,1.59269 c 11.59604,1.89507 21.21993,6.18839 23.84721,10.63851 4.44475,7.52857 0.67895,15.43258 -9.64145,20.23638 -8.78103,4.08727 -18.89834,5.54367 -28.32745,4.07776 -9.50134,-1.47714 -14.94489,-3.88569 -20.63391,-9.12964 l -4.50146,-4.1493 -9.29389,5.60285 c -5.11163,3.08157 -14.36743,8.17116 -20.56843,11.3102 -6.20101,3.13904 -11.27655,5.96266 -11.27898,6.27472 -0.002,0.31206 2.36749,1.31506 5.26651,2.22889 10.15378,3.2007 19.34502,10.67928 24.83057,20.20373 5.24253,9.1025 3.11038,16.20201 -5.51839,18.37475 -9.66848,2.43455 -25.30665,0.45223 -35.40381,-4.48785 -7.69533,-3.76497 -17.33066,-13.17102 -21.26465,-20.75862 l -3.27825,-6.32287 -9.21734,2.34053 c -9.18876,2.33328 -29.18405,5.51993 -43.41907,6.9197 -5.75711,0.56611 -6.8853,0.90804 -4.85485,1.4714 5.42481,1.50514 14.73938,7.25419 19.62099,12.11028 6.74143,6.70619 11.29114,15.39287 11.96723,22.84882 0.48063,5.30046 0.293,6.0684 -2.05679,8.41819 C 585.39614,828.69477 584.2777,829 578.202,829 c -20.49859,0 -40.95455,-17.24295 -46.59284,-39.27451 -0.94759,-3.70274 -1.81402,-5.20121 -2.97323,-5.14216 -6.2154,0.31661 -6.12243,0.24537 -7.39459,5.66667 -2.90152,12.36486 -12.68631,25.37045 -24.43767,32.48166 -5.29985,3.20716 -18.74393,7.30513 -23.71363,7.2283 -1.42452,-0.022 -3.81122,-0.70284 -5.30377,-1.51293 z m 15.00434,-2.8791 c 18.13246,-4.82676 32.77305,-20.22799 36.4255,-38.31793 L 520.2761,782 h 6.1253 6.1253 l 1.16165,4.89028 c 1.79006,7.53575 5.21916,14.74997 9.83884,20.6992 5.51116,7.0973 10.34851,10.90032 19.36179,15.22184 6.13499,2.94149 8.54642,3.55512 14.20906,3.61571 8.33483,0.0892 10.16747,-1.27196 10.08168,-7.48784 -0.0802,-5.81128 -5.19671,-15.86094 -11.0606,-21.72483 -5.12648,-5.12649 -14.11729,-10.36578 -20.86912,-12.16127 -3.07158,-0.81681 -4.25,-1.6459 -4.25,-2.99014 0,-1.57954 1.09307,-1.96279 7.25,-2.54198 14.72076,-1.3848 35.53973,-4.59331 45.56371,-7.02204 C 609.48624,771.12452 614.94594,770 615.94636,770 c 1.22371,0 2.73335,1.88161 4.61329,5.75 1.67147,3.43943 5.43562,8.36504 9.36735,12.2577 10.27519,10.17311 19.94823,13.97068 35.573,13.96569 10.06342,-0.003 13.33073,-1.13612 15.33564,-5.31748 1.20193,-2.50672 1.06784,-3.33291 -1.33962,-8.25358 -4.89527,-10.00556 -17.8919,-20.00723 -28.65195,-22.04937 -4.4972,-0.85351 -7.24851,-2.35234 -6.20143,-3.37835 0.47155,-0.46206 6.25736,-3.53328 12.85736,-6.82495 6.6,-3.29166 16.87833,-8.94692 22.84073,-12.56725 5.9624,-3.62032 11.38358,-6.58241 12.04705,-6.58241 0.66348,0 2.9284,1.76356 5.03316,3.91903 2.10476,2.15547 6.58358,5.19297 9.95295,6.75 5.56907,2.57355 7.12633,2.82838 17.12611,2.80252 12.65788,-0.0327 20.16619,-2.30586 26.35731,-7.9796 6.33462,-5.80524 4.26973,-12.80144 -5.21333,-17.66368 -4.62816,-2.37299 -15.42763,-4.78108 -21.64398,-4.82622 -4.71372,-0.0342 -7.50155,-1.12848 -6.87188,-2.6973 0.20453,-0.50961 3.97188,-4.00904 8.37188,-7.77651 4.4,-3.76747 8.99931,-7.74361 10.22068,-8.83587 1.67829,-1.50086 2.54716,-1.71497 3.5573,-0.87663 C 741.32041,701.5108 751.86316,704 757,704 c 11.20937,0 23.06141,-5.04074 31.65958,-13.465 9.59054,-9.39657 10.82887,-17.43318 3.17471,-20.60364 -4.2928,-1.77813 -19.99536,-0.66081 -27.29963,1.94252 -3.28094,1.16937 -6.31844,2.12612 -6.75,2.12612 -1.44126,0 -0.80946,-1.90428 2.06394,-6.22076 1.56673,-2.35358 4.94532,-7.54174 7.50797,-11.52924 l 4.65937,-7.25 5.28193,0 c 13.32965,0 26.95982,-6.09662 37.81429,-16.91392 7.98797,-7.96061 11.59891,-13.8445 14.39137,-23.45023 2.07647,-7.14281 0.93639,-10.93824 -3.77949,-12.5822 -5.97759,-2.0838 -19.94522,2.06267 -28.7282,8.52833 -8.62437,6.3489 -9.49282,6.01959 -5.81473,-2.20486 1.19962,-2.68242 4.28534,-11.17712 6.85716,-18.87712 l 4.67604,-14 7.93031,-0.59854 c 11.23594,-0.84804 18.72409,-4.40274 26.27218,-12.47167 7.20514,-7.70232 9.51197,-13.65407 9.55382,-24.64944 0.0253,-6.6364 -0.27855,-8.02794 -2.16506,-9.91667 -1.27038,-1.27186 -3.43868,-2.19701 -5.14921,-2.19701 -4.6828,0 -13.27469,4.8055 -19.32697,10.80971 -6.69266,6.6395 -8.34398,7.03198 -7.46228,1.77362 0.34583,-2.0625 0.92295,-10.3409 1.28249,-18.39644 l 0.65371,-14.64644 3.59835,-0.5982 c 5.79456,-0.96329 14.26327,-5.39932 18.93087,-9.91625 6.4409,-6.23299 8.43471,-10.77014 8.96312,-20.39661 0.44275,-8.06596 0.3991,-8.25517 -2.59573,-11.25 -3.57018,-3.57018 -5.14136,-3.70617 -11.19991,-0.96938 -5.15941,2.33062 -11.10745,7.7021 -14.65971,13.23871 -1.34637,2.09847 -2.94302,3.65037 -3.54811,3.44867 -0.6051,-0.2017 -1.97091,-4.39363 -3.03513,-9.31539 -3.23829,-14.97631 -3.38258,-13.58626 1.7593,-16.94867 14.4881,-9.47415 21.75824,-31.28788 16.36508,-49.10267 -3.12595,-10.32568 -20.25727,-2.25918 -27.51214,12.95446 C 800.41245,412.3583 799.12073,414 798.4988,414 c -0.62192,0 -2.18547,-2.5875 -3.47455,-5.75 -1.28907,-3.1625 -4.97188,-11.03058 -8.18401,-17.48462 C 781.11309,379.25799 780.03687,376 781.96274,376 c 1.59385,0 9.12445,-11.83998 11.36416,-17.86729 1.66052,-4.46864 2.07732,-7.80266 2.01681,-16.13271 -0.0884,-12.17627 -1.72407,-18.44823 -5.55732,-21.31016 -2.59133,-1.93471 -2.83096,-1.94453 -7.15486,-0.29322 -2.57309,0.98267 -6.23447,3.6187 -8.61814,6.20468 -3.86846,4.19678 -10.01082,15.33034 -10.0126,18.1487 -0.002,3.15196 -3.82291,0.67867 -7.50079,-4.85529 -2.2,-3.31025 -4.42195,-6.62494 -4.93767,-7.36597 -0.6472,-0.92996 0.11134,-3.31153 2.44868,-7.68804 2.91709,-5.46205 3.44405,-7.53219 3.80273,-14.93898 0.49822,-10.28798 -1.14745,-16.85588 -6.26529,-25.00494 -2.39972,-3.82104 -4.88738,-6.32916 -7.82123,-7.88556 -4.15934,-2.20653 -4.41188,-2.22565 -7.60237,-0.57578 -5.26168,2.72092 -7.55868,8.98098 -7.61289,20.74755 -0.0245,5.32565 -0.29667,9.93506 -0.60474,10.24312 -0.30807,0.30807 -4.35072,-2.86948 -8.98367,-7.06122 -4.63295,-4.19174 -11.01105,-9.61495 -14.17355,-12.05157 -3.1625,-2.43662 -5.75,-4.89656 -5.75,-5.46653 0,-0.56997 0.95948,-4.19519 2.13218,-8.05605 4.23492,-13.94256 0.94463,-31.50083 -7.56786,-40.38496 -5.44674,-5.68452 -8.38364,-5.82176 -13.57125,-0.63414 -4.48842,4.48841 -7.72948,13.80838 -8.66962,24.93024 -0.33931,4.01396 -0.97567,7.29812 -1.41413,7.29812 -0.43847,0 -3.88539,-1.8578 -7.65982,-4.12844 l -6.8626,-4.12844 0.0566,-9.62156 c 0.0486,-8.27157 -0.28881,-10.32311 -2.40484,-14.62156 -6.32599,-12.85041 -22.33911,-22.62065 -30.18901,-18.41951 -4.90533,2.62526 -6.12109,12.20824 -2.79965,22.06778 1.12747,3.34684 1.80558,6.32953 1.50692,6.6282 -0.29867,0.29866 -4.70864,-0.69714 -9.79995,-2.21289 -5.09131,-1.51575 -9.94098,-2.93513 -10.77706,-3.15418 -0.96857,-0.25376 -1.93568,-2.5848 -2.66536,-6.42438 -1.59724,-8.40467 -6.35813,-18.04827 -11.76248,-23.82595 -5.16238,-5.519 -14.18941,-10.75764 -20.19085,-11.71731 -3.38287,-0.54094 -4.47625,-0.24684 -6.93044,1.86416 -2.62462,2.2576 -2.90579,3.08657 -2.83231,8.35025 0.0921,6.59521 2.54846,13.02526 6.97852,18.2676 3.5429,4.1925 13.41588,10.69419 18.59629,12.24628 4.67563,1.40085 5.21526,4.3609 1.07677,5.90648 -10.58382,3.95271 -18.90483,10.74525 -22.28502,18.19155 -2.30815,5.08466 -2.5304,12.47966 -0.46374,15.43023 2.10974,3.01208 6.06661,3.58071 12.74832,1.83205 12.68703,-3.32031 21.27994,-12.24089 25.33869,-26.30492 0.4696,-1.6272 2.17375,-1.22372 20.77348,4.91836 16.56194,5.46915 38.30494,15.29265 38.30494,17.3062 0,0.86457 -2.06223,1.52257 -6.08334,1.94102 -14.90007,1.55058 -29.41359,9.10018 -31.20338,16.23128 -1.54327,6.14886 9.5502,13.2675 24.03354,15.42227 7.40049,1.10101 9.68433,1.05464 16.76541,-0.34041 9.52758,-1.87704 18.69714,-6.10164 24.19679,-11.14795 2.13163,-1.95591 4.31697,-3.55621 4.8563,-3.55621 3.80617,0 36.69981,30.14926 49.37174,45.25257 11.16165,13.30324 12.2623,17.02422 3.82286,12.92403 -5.76723,-2.80194 -16.78999,-4.70907 -21.78832,-3.76977 -4.55134,0.85531 -8.64727,4.5621 -8.61631,7.79772 0.0601,6.2799 6.84204,16.21479 15.34876,22.48439 8.47111,6.24336 17.36533,8.74105 28.49377,8.00166 4.74953,-0.31557 9.60319,-0.86581 10.78591,-1.22276 1.84439,-0.55666 2.66117,0.26432 5.73967,5.76921 1.9741,3.53002 5.54522,11.10828 7.93581,16.84058 6.87074,16.47504 6.81179,17.97229 -0.51303,13.02883 -2.38193,-1.60754 -7.24364,-3.90408 -10.80381,-5.10341 -5.48112,-1.84646 -7.04793,-2.00837 -10.22472,-1.05658 -4.56286,1.36707 -5.78432,3.4347 -5.78432,9.79144 0,6.69063 3.85081,14.01111 10.62902,20.20601 6.3955,5.84513 12.20626,8.01398 23.53036,8.78265 l 7.65939,0.51991 1.59061,6.33228 C 799.22958,466.825 799.42001,470 798.03442,470 c -0.53106,0 -3.79356,-1.55082 -7.25,-3.44626 -7.95802,-4.36404 -14.47261,-5.907 -18.7073,-4.43078 -5.6112,1.95608 -6.50103,6.99628 -2.92333,16.55854 4.02591,10.7602 14.78417,18.84579 27.85656,20.93615 l 3.98965,0.63797 -0.0876,10.62219 c -0.12224,14.82157 -0.98264,20.51718 -3.16239,20.93411 -0.9625,0.1841 -1.75,-0.1752 -1.75,-0.79846 0,-0.62325 -2.29708,-3.56201 -5.10463,-6.53057 -10.6054,-11.21365 -20.07383,-10.78295 -22.36016,1.01711 -0.80822,4.17136 1.02835,13.04773 3.93121,19 2.78854,5.71786 11.33304,14.76008 15.6292,16.53961 2.01216,0.83346 2.90438,1.90774 2.90438,3.497 C 791,572.02299 768.21165,628 765.16393,628 c -0.446,0 -1.323,-2.75357 -1.94887,-6.11904 -3.02034,-16.24105 -16.2338,-32.59898 -24.63024,-30.4916 -3.88325,0.97463 -5.77543,6.22298 -6.34938,17.61133 -0.83019,16.47239 3.06585,27.16588 14.01456,38.4659 3.7125,3.83162 6.75,7.58318 6.75,8.3368 0,2.27177 -14.52789,23.17244 -22.6159,32.53656 -7.16933,8.30048 -10.30887,10.29194 -9.54163,6.05242 0.18835,-1.0408 0.41335,-5.57187 0.5,-10.06904 0.13289,-6.89775 -0.17098,-8.61827 -1.9428,-11 -1.15518,-1.55283 -3.07548,-2.96815 -4.26735,-3.14515 -9.04309,-1.34299 -23.8917,12.94287 -28.29102,27.21884 -1.81761,5.8982 -2.04317,8.456 -1.5575,17.66211 0.48953,9.27955 0.33664,10.96839 -1.10795,12.23823 C 681.62909,729.53606 659.72293,742 658.33505,742 c -2.34478,0 -2.32734,-1.85571 0.0439,-4.6738 2.9633,-3.52169 5.04374,-8.4072 6.52873,-15.33146 3.08201,-14.37095 -6.59536,-17.81861 -22.92891,-8.16867 -13.57879,8.02243 -24.88716,25.30137 -24.98329,38.17393 -0.0144,1.925 -0.35674,4.00636 -0.76082,4.62525 -1.50445,2.30422 -43.264,9.58391 -60.73469,10.58752 -7.31254,0.42007 -6.45414,-1.78877 2.09028,-5.37876 8.37951,-3.52069 17.44256,-10.34167 20.79299,-15.6491 6.43402,-10.19215 6.96148,-18.0115 1.42462,-21.11927 -6.23647,-3.50043 -25.1082,3.11819 -33.79931,11.85396 -7.61882,7.65798 -10.66797,14.27039 -13.52499,29.3304 -0.48546,2.55899 -0.86522,2.75 -5.46746,2.75 -5.62337,0 -6.4065,-0.84762 -7.30639,-7.90806 -0.30901,-2.42444 -2.14945,-7.59944 -4.08987,-11.5 -5.87157,-11.80278 -15.2167,-19.8393 -27.47521,-23.62781 -8.93283,-2.76071 -13.6078,-2.5919 -16.80657,0.60687 -2.23446,2.23446 -2.48471,3.11802 -1.91182,6.75 1.69098,10.72025 10.60244,21.37467 22.74527,27.19397 3.99962,1.91677 7.84723,3.48503 8.55025,3.48503 0.70301,0 1.27821,0.93575 1.27821,2.07946 0,1.72955 -0.46274,1.9908 -2.75,1.5526 -1.5125,-0.28976 -5.675,-0.80859 -9.25,-1.15294 -9.97323,-0.96066 -29.2773,-4.2893 -41.64149,-7.18034 l -11.14149,-2.60514 -0.66916,-5.04435 c -2.29573,-17.3061 -13.91749,-32.89319 -30.02266,-40.26638 -7.89766,-3.61567 -13.99259,-3.75516 -16.73109,-0.38291 -3.044,3.74845 -1.93013,13.05168 2.67969,22.38125 3.81531,7.72158 4.07298,8.61875 2.47534,8.61875 -1.58515,0 -24.31557,-13.64244 -26.20024,-15.72496 -1.32094,-1.45963 -1.46165,-2.59307 -0.71937,-5.79479 3.17452,-13.69303 -1.10299,-28.92866 -11.23416,-40.01377 -9.5488,-10.44791 -17.7776,-13.09386 -22.1965,-7.13722 -1.8186,2.45145 -2.08692,4.15403 -2.00935,12.75 0.0591,6.55209 -0.28084,9.92074 -1.00121,9.92074 -2.86699,0 -28.79003,-33.97123 -30.19515,-39.56967 -0.4049,-1.61326 0.97194,-3.61583 5.85761,-8.51966 6.86088,-6.88638 10.75275,-13.7672 13.21878,-23.37077 3.80576,-14.82092 0.064,-33.5399 -6.70427,-33.5399 -3.2636,0 -9.93554,4.38192 -13.58146,8.91989 -4.35642,5.42229 -8.11114,13.76584 -9.51198,21.13702 -0.66895,3.52002 -1.64379,5.94309 -2.391,5.94309 -2.39901,0 -16.00863,-31.74011 -22.14936,-51.6563 C 264.40916,569.75773 263,564.77003 263,564.25991 c 0,-0.51011 2.40496,-2.58383 5.34435,-4.60827 12.76676,-8.79281 20.29691,-25.75297 16.489,-37.13818 -1.91943,-5.73886 -5.51044,-7.2904 -11.54207,-4.9869 -4.48336,1.71221 -10.80936,7.2057 -14.93951,12.97344 -3.59302,5.01764 -4.3983,2.50475 -4.6368,-14.46922 L 253.5,500.73162 l 6.84102,-1.8872 c 8.73123,-2.40864 11.82481,-4.03831 17.42486,-9.17924 5.75244,-5.28082 9.2114,-12.50303 9.22435,-19.26019 0.0106,-5.55427 -1.4888,-7.74985 -6.0739,-8.89374 -3.35734,-0.83759 -13.93079,2.7146 -19.51358,6.55566 C 257.53499,470.728 255,471.71588 255,470.56205 c 0,-0.60167 2.97958,-13.6781 3.57468,-15.68812 0.37816,-1.27728 2.24503,-1.72704 8.70337,-2.09677 10.09243,-0.57778 17.96514,-4.01939 24.54773,-10.73119 10.0424,-10.23953 11.99406,-24.13416 3.86691,-27.52991 -4.95871,-2.07188 -15.29051,0.73653 -22.37597,6.08227 -3.61731,2.72914 -5.31672,3.04382 -5.31672,0.98449 0,-2.32674 6.77198,-18.43744 11.80435,-28.08282 3.85816,-7.39481 5.05236,-8.92717 6.69565,-8.59164 1.1,0.22459 6.725,0.44959 12.5,0.5 8.67463,0.0757 11.55012,-0.30709 16.54054,-2.20195 7.55455,-2.86846 14.78515,-8.2748 19.70078,-14.73031 7.13528,-9.37048 7.39837,-16.33192 0.74796,-19.79096 -4.7066,-2.44802 -15.33169,-1.59062 -22.83017,1.84229 -5.84173,2.67444 -8.15911,3.07591 -8.15911,1.41353 0,-2.19993 12.80787,-17.84316 22.95374,-28.03516 10.1202,-10.16621 32.20584,-29.61005 34.7849,-30.62406 0.68125,-0.26785 3.38125,1.29982 6,3.48372 14.4023,12.01073 34.38334,15.09457 52.60978,8.11971 11.02439,-4.21879 14.64657,-10.01892 10.06825,-16.12206 -4.24537,-5.65928 -16.44603,-10.99425 -28.16667,-12.31641 -4.21559,-0.47554 -6.25,-1.14237 -6.25,-2.04858 0,-2.37225 24.05235,-13.09325 43,-19.16665 13.25187,-4.24771 14.02217,-4.3738 14.68535,-2.40385 4.93248,14.65174 13.75095,23.24474 26.87237,26.18532 20.78557,4.65814 15.72159,-23.38939 -6.05772,-33.55148 -2.75,-1.28313 -5.7875,-2.57276 -6.75,-2.86583 -3.55431,-1.08226 -1.61525,-3.52089 5.53373,-6.95941 9.32629,-4.48577 15.93976,-10.33597 19.12953,-16.92178 3.45715,-7.13785 4.15068,-12.42898 2.23126,-17.02281 -2.11051,-5.05116 -5.3778,-6.20179 -12.0788,-4.25376 -14.25403,4.14376 -25.95619,19.10611 -28.41045,36.32552 l -0.6751,4.73661 -8.49009,2.24515 C 431.95793,244.45587 432,244.45033 432,242.58982 c 0,-0.9131 0.71621,-2.75327 1.59159,-4.08925 2.12332,-3.2406 2.96235,-13.29209 1.48356,-17.77287 -0.64691,-1.96014 -2.34116,-4.3272 -3.765,-5.26014 -8.51894,-5.58182 -27.534,7.44504 -31.79081,21.77927 -1.7355,5.84407 -1.99032,14.00461 -0.52293,16.74647 0.54803,1.024 0.75425,2.45691 0.45828,3.18426 -0.60178,1.47882 -13.0392,8.82244 -14.94202,8.82244 -0.79408,0 -1.44001,-2.6122 -1.85247,-7.49157 -1.10499,-13.07209 -6.27428,-25.06256 -12.01524,-27.87006 -3.63553,-1.77788 -5.67466,-1.21582 -9.63444,2.6556 -8.998,8.79722 -12.75258,28.54234 -7.93048,41.70603 1.10811,3.025 2.24756,6.19823 2.53211,7.05161 0.34661,1.03953 -1.56674,3.18448 -5.7974,6.49916 -3.47311,2.72115 -9.9897,8.21043 -14.48132,12.19839 -4.49161,3.98796 -8.62489,7.25084 -9.18506,7.25084 -0.65762,0 -0.81581,-3.12851 -0.44646,-8.82956 0.69307,-10.69759 -1.20955,-17.73691 -5.8492,-21.64092 -3.7077,-3.11983 -5.604,-3.168 -9.95483,-0.2529 -7.89136,5.28729 -13.12843,17.53779 -13.21454,30.91136 -0.0456,7.07727 0.28967,8.42786 3.81678,15.37683 4.36523,8.60017 4.49696,7.81672 -2.88167,17.13788 -4.16631,5.26314 -6.61845,6.62928 -6.61845,3.68729 0,-2.41179 -5.76475,-12.75515 -9.61766,-17.25641 -1.86323,-2.17676 -5.42757,-4.94524 -7.92076,-6.15217 -3.8455,-1.86158 -4.96242,-2.01659 -7.36364,-1.02197 -4.68129,1.93905 -7.03017,9.10526 -7.07349,21.58047 -0.0408,11.76281 3.20719,21.37008 10.41901,30.81808 1.9561,2.56263 3.55654,5.36981 3.55654,6.23819 0,0.86837 -1.59527,4.43146 -3.54504,7.91798 -1.94977,3.48652 -5.4415,10.94855 -7.7594,16.58229 -2.3179,5.63374 -4.71866,10.41126 -5.33503,10.61672 -0.61637,0.20545 -2.46698,-2.00846 -4.11247,-4.9198 -5.85803,-10.36458 -16.82701,-18.04454 -22.62426,-15.84043 -4.56708,1.7364 -5.1238,3.57816 -5.1238,16.95076 0,12.14107 0.11765,12.84473 3.25527,19.46985 3.43127,7.24515 14.7134,19.62646 17.88408,19.62646 1.81133,0 1.7497,0.62362 -1.43293,14.5 -1.29934,5.66517 -2.27628,8 -3.34737,8 -0.8319,0 -3.526,-2.46997 -5.9869,-5.48882 -8.46441,-10.38351 -18.94402,-14.38531 -24.1171,-9.20948 -1.98536,1.98642 -2.24857,3.23943 -2.20086,10.47728 0.0452,6.85116 0.48899,9.05417 2.6636,13.22102 4.70338,9.01233 14.57358,16.1474 24.93339,18.02409 l 3.65118,0.66141 0.59882,8.90725 c 0.32935,4.89899 0.87159,12.95725 1.20498,17.90725 0.44895,6.66573 0.29522,9 -0.59271,9 -0.65939,0 -3.92667,-2.46851 -7.26063,-5.48557 C 226.49822,522.94939 220.79017,520 215.33926,520 c -6.35518,0 -7.8592,2.41134 -7.74925,12.42415 0.11209,10.20921 2.99832,17.14559 10.3835,24.95433 7.19812,7.61095 15.01362,11.04389 25.43643,11.17291 l 7.90994,0.0979 5.15735,15.92535 c 2.83654,8.75894 5.95286,17.43956 6.92516,19.29025 0.97229,1.8507 1.39201,3.7321 0.93271,4.18089 -0.45931,0.4488 -4.12397,-1.398 -8.1437,-4.104 -8.27885,-5.57314 -16.09069,-8.22373 -24.02689,-8.15242 -7.08316,0.0637 -8.71439,1.64956 -8.51245,8.27597 0.19336,6.34518 5.31457,17.32048 11.75152,25.18477 C 245.19386,641.21131 261.75201,649 277.39029,649 h 5.29185 l 2.79556,5.13635 c 1.53755,2.82499 4.79387,8.0552 7.23625,11.62267 2.58878,3.7813 4.0702,6.85683 3.55226,7.37477 -0.51794,0.51794 -3.36517,0.0127 -6.82733,-1.21157 -6.15936,-2.17798 -21.29277,-3.67767 -25.77058,-2.55382 -5.81814,1.46026 -7.36272,7.38994 -3.76296,14.44605 2.36761,4.64091 10.45728,12.30957 15.9313,15.10221 10.32238,5.26609 26.04435,6.34287 36.28969,2.48545 4.56736,-1.71964 4.66294,-1.7131 7.5,0.51254 6.30876,4.94919 16.45016,15.44364 16.01641,16.57398 -0.27418,0.71449 -3.63677,1.44935 -8.30179,1.81429 -18.65399,1.45925 -31.01539,9.86551 -26.97291,18.34268 3.30019,6.92058 12.93308,11.37671 26.13196,12.08853 7.4789,0.40335 10.08456,0.1175 15.41708,-1.69129 6.88268,-2.3346 14.40654,-6.98693 16.36121,-10.11685 0.66154,-1.0593 1.74346,-1.92599 2.40426,-1.92599 0.66081,0 5.3217,2.51013 10.35755,5.57807 8.48464,5.16901 30.06542,16.37095 35.57333,18.46506 3.77422,1.43495 2.90681,3.74677 -1.86343,4.9664 -12.68375,3.24293 -21.93171,9.19695 -28.02498,18.04302 -4.75859,6.90843 -5.6636,11.5661 -2.90887,14.97055 1.85401,2.29128 2.7656,2.50282 12.16443,2.82281 8.77229,0.29865 11.2776,-0.009 18.33982,-2.25056 4.49878,-1.42806 10.6546,-4.32075 13.6796,-6.4282 6.61847,-4.61093 14.1896,-13.68158 16.00096,-19.17006 1.62599,-4.9268 1.69621,-4.93067 19.20972,-1.06004 12.53895,2.77121 27.41684,5.13816 41.53932,6.60858 5.14093,0.53527 6.25,0.97396 6.25,2.47219 0,1.3126 -1.46667,2.30113 -5.25,3.5385 -7.83147,2.56134 -12.84047,5.80931 -19.13293,12.4063 -6.60026,6.91968 -10.59341,14.74516 -10.6073,20.78738 -0.0181,7.8824 5.04863,9.94098 16.78084,6.81793 z M 389.38573,674.75 C 371.32668,655.86673 359.8993,636.08334 353.17681,612.06413 350.68243,603.15181 350.5,601.13697 350.5,582.5 c 0,-13.01862 0.48402,-22.44348 1.3866,-27 3.43344,-17.33309 11.8696,-37.2773 20.9379,-49.5 l 4.8225,-6.5 -3.81335,-8 C 359.1002,460.59074 363.52329,419.81333 384.76589,390.71345 l 4.95411,-6.78655 -6.6471,-6.71345 C 372.24703,366.27951 365,349.25741 365,334.76311 c 0,-5.20646 0.351,-6.26795 2.92308,-8.84003 2.0982,-2.0982 3.89417,-2.92308 6.36431,-2.92308 3.47519,0 3.98811,0.32981 16.64251,10.70107 9.51838,7.80106 21.74776,12.46867 37.34084,14.25197 l 7.22926,0.82677 10.5,-5.29534 c 25.83226,-13.02767 61.46297,-20.74718 88,-19.06549 28.01937,1.77564 50.42396,7.70762 74,19.59271 l 9.5,4.78911 7.5,-0.94254 c 16.0568,-2.0179 28.07375,-6.81643 39.16342,-15.63849 13.43358,-10.68669 15.80847,-11.40173 20.9135,-6.29669 2.56697,2.56697 2.92128,3.63295 2.9083,8.75 -0.0373,14.68949 -7.37011,31.99263 -17.99059,42.45195 l -6.7271,6.62504 5.42697,7.87496 c 14.63066,21.23025 21.19136,46.27368 18.4464,70.41339 -1.22847,10.80339 -5.53075,25.35923 -9.71145,32.8566 l -2.45076,4.39502 4.18607,5.54441 c 8.93394,11.83291 17.5483,31.69979 21.31839,49.16555 2.49296,11.5492 3.09644,36.50271 1.15203,47.63569 -4.55943,26.10564 -17.31133,51.13868 -36.35588,71.36962 -13.02113,13.83228 -14.67422,13.51935 -22.29446,-4.22041 -9.33332,-21.72775 -16.74083,-46.20546 -19.47748,-64.3623 -2.68004,-17.78115 -1.69736,-41.5958 2.43148,-58.92575 0.98236,-4.12327 1.65934,-7.49685 1.5044,-7.49685 -0.15494,0 -3.13055,0.75059 -6.61247,1.66797 -8.29058,2.18433 -31.82367,2.46778 -36.62793,0.44118 -6.14214,-2.59097 -8.2398,-11.1631 -3.81457,-15.58833 2.76431,-2.76431 5.27274,-3.26019 19.61173,-3.87693 17.83809,-0.76726 32.49744,-7.74085 45.03533,-21.42375 21.93164,-23.93452 25.0594,-59.08722 7.81928,-87.88034 -4.87925,-8.14895 -17.16651,-20.28619 -25.35461,-25.04504 -11.21887,-6.52032 -22.01048,-9.54541 -34.5,-9.67101 -11.6372,-0.11702 -18.25823,1.18848 -27.84633,5.49061 -12.61172,5.65881 -22.83475,14.5073 -32.5636,28.18524 -3.01379,4.23714 -5.42674,6.68592 -6.40286,6.49794 -0.86155,-0.16592 -3.95028,-3.45074 -6.86385,-7.29961 -8.59334,-11.35192 -18.92529,-20.54457 -28.4483,-25.31132 -11.88117,-5.94712 -19.177,-7.65455 -32.37506,-7.57667 -9.23357,0.0545 -12.26848,0.49938 -18.89916,2.77049 -25.46781,8.7231 -43.70142,29.57144 -49.23409,56.29434 -1.97131,9.52144 -1.39863,27.01753 1.15625,35.32523 5.90124,19.18907 19.06895,35.12041 35.88532,43.41688 9.00264,4.44152 17.28513,6.37689 30.90266,7.22104 11.7399,0.72776 14.89668,2.06901 16.09358,6.83784 0.93552,3.72742 -1.74634,9.11821 -5.57578,11.20782 -4.94791,2.69993 -30.87281,2.46362 -38.92524,-0.3548 l -5.59646,-1.95882 1.26971,4.21893 c 5.44992,18.10871 5.92266,54.34084 0.99045,75.91111 -3.4233,14.97132 -9.8966,34.55178 -16.546,50.04845 -8.10965,18.89984 -9.11296,19.24999 -20.63551,7.20155 z m 15.86129,-3.06211 c 4.3344,-9.03532 11.63249,-28.79109 15.25949,-41.30713 8.90626,-30.73363 9.73249,-58.95047 2.58792,-88.38076 -1.0014,-4.125 -1.48112,-7.63373 -1.06606,-7.79717 0.41507,-0.16345 3.61598,0.7072 7.11315,1.93477 4.83213,1.69617 9.30853,2.33256 18.64782,2.65108 14.58632,0.49748 18.62842,-0.11553 21.82239,-3.3095 3.08373,-3.08373 3.06425,-6.80229 -0.0485,-9.25075 -1.95496,-1.53778 -4.77236,-2.04244 -14.25,-2.55253 -13.65685,-0.73501 -20.06308,-2.25939 -29.81327,-7.09417 -26.69055,-13.23492 -42.63667,-44.24913 -38.60298,-75.0804 1.46746,-11.21638 3.04739,-16.62605 7.55648,-25.87322 9.77751,-20.05159 28.30765,-35.34991 48.5465,-40.07955 8.25856,-1.92996 23.46074,-1.94579 32.487,-0.0338 16.44127,3.48261 33.36021,15.20066 45.3606,31.41672 l 5.49949,7.43145 1.57646,-2.42478 c 8.33648,-12.82256 20.94768,-24.76673 32.07645,-30.37987 12.40631,-6.25751 16.07077,-7.06173 32,-7.02288 12.93682,0.0315 15.33852,0.31753 22.27805,2.6527 25.30692,8.51585 45.29341,31.07177 50.78333,57.31194 3.11999,14.91261 0.65563,36.20772 -5.63047,48.65411 C 646.10242,509.54438 622.86271,524 593.76466,524 583.80299,524 581,525.39838 581,530.36814 c 0,3.74778 2.84539,7.30397 6.59759,8.24571 1.39823,0.35093 8.69828,0.40528 16.22232,0.12077 10.59293,-0.40055 15.10315,-1.01813 19.98605,-2.73666 3.46828,-1.22065 6.57594,-1.94939 6.90592,-1.61942 0.32997,0.32998 -0.58508,5.44229 -2.03344,11.36071 -4.97696,20.33719 -5.30357,47.42745 -0.81716,67.77647 C 633.57752,639.44282 648.94037,680 653.0452,680 c 2.49441,0 17.43792,-16.19155 24.1278,-26.14289 10.33222,-15.36941 17.96165,-33.23294 21.93438,-51.35711 1.69317,-7.72447 1.67638,-32.69841 -0.0286,-42.5 -2.92324,-16.80542 -12.94181,-41.63852 -20.91504,-51.84221 -6.82116,-8.72933 -6.7224,-7.99782 -2.27154,-16.82475 6.07765,-12.05318 8.21769,-20.74843 8.81906,-35.83304 0.97592,-24.47943 -4.99074,-43.62002 -20.31821,-65.17919 C 661.97689,386.92225 660,383.4463 660,382.59649 c 0,-0.84982 1.2375,-2.1946 2.75,-2.98839 10.63693,-5.58249 22.17264,-27.77083 22.58385,-43.43886 0.15158,-5.77547 -0.0767,-6.54016 -2.60257,-8.71813 -3.4254,-2.95362 -5.88783,-2.24375 -12.5456,3.61665 -11.39445,10.0298 -20.98732,14.74302 -36.68568,18.0246 -14.14539,2.95696 -15.80166,2.72878 -30.11857,-4.14932 C 575.40627,331.50326 549.68842,326.0657 520,327.31359 c -24.81451,1.04302 -52.1874,8.04454 -72.75535,18.60957 -11.13279,5.71853 -12.93374,5.9573 -26.75445,3.54717 -15.11764,-2.6363 -23.60442,-6.99555 -39.82656,-20.45702 -2.66,-2.20732 -5.44741,-4.01331 -6.19424,-4.01331 -0.74683,0 -2.61886,1.08466 -4.16008,2.41035 -2.56827,2.20914 -2.78738,2.93959 -2.62462,8.75 0.37396,13.35053 8.66316,31.47164 18.40114,40.22692 2.82176,2.537 5.5318,4.61273 6.02231,4.61273 2.06082,0 0.58751,3.67034 -3.96499,9.87769 -6.46387,8.8135 -9.38863,14.04013 -13.20664,23.60063 -10.01149,25.06928 -9.21668,54.25077 2.09982,77.09503 l 4.05131,8.17826 -5.42072,7.20567 c -9.63468,12.80722 -17.79472,31.90305 -21.36586,49.99961 -2.62405,13.29725 -2.34089,38.87452 0.55952,50.54106 4.37273,17.58873 13.15273,36.15071 23.88797,50.50205 7.51235,10.04283 19.28462,22.13712 21.20376,21.78375 0.85122,-0.15674 3.23384,-3.79988 5.2947,-8.09586 z m -31.23217,-73.90232 c -3.73961,-4.01401 -4.40875,-8.56519 -3.05786,-20.79835 2.54269,-23.02561 13.25651,-52.32444 21.34084,-58.36026 2.34354,-1.74971 2.96083,-1.82649 5.17168,-0.64328 3.39692,1.81798 6.53049,8.6373 6.53049,14.21176 0,5.19582 -13.0289,54.04919 -16.15681,60.58184 -3.25976,6.80801 -9.9083,9.21595 -13.82834,5.00829 z m 7.44596,-1.4089 c 3.39371,-1.30229 7.92131,-14.54942 16.98033,-49.68208 3.15086,-12.21964 3.43362,-14.30632 2.46169,-18.16622 C 399.83814,524.30013 396.86787,520 395.01194,520 c -1.80473,0 -6.23277,7.05877 -10.46627,16.68435 -5.18359,11.78576 -7.94038,20.795 -10.00503,32.69664 -3.48229,20.07362 -0.93515,30.01005 6.92017,26.99568 z m 287.74831,2.05725 c -1.22974,-0.86135 -3.07067,-3.22385 -4.09094,-5.25 -3.35692,-6.66651 -17.11411,-56.47052 -17.11666,-61.96604 -0.003,-6.0414 4.84042,-14.21788 8.42175,-14.21788 3.33562,0 8.07467,5.78716 12.68054,15.48502 8.95476,18.85463 12.3701,32.87625 12.38583,50.84983 0.0103,11.73277 -0.0138,11.85569 -2.7954,14.25 -3.24551,2.79368 -6.31635,3.06856 -9.48512,0.84907 z m 8.38589,-3.54339 c 4.21297,-4.66518 0.92338,-31.85567 -6.03328,-49.86874 -6.6349,-17.17993 -12.24216,-25.84912 -15.82904,-24.47271 -2.136,0.81966 -4.93356,6.95681 -4.9289,10.81278 0.004,3.6602 1.36978,9.16286 8.81919,35.54311 5.89084,20.86099 7.54918,25.5228 10.07015,28.30843 2.16795,2.39556 5.57259,2.25645 7.90188,-0.32287 z m -189.93146,80.88633 c -7.378,-1.95473 -13.76802,-11.52813 -12.1084,-18.14057 1.00377,-3.99933 4.15595,-6.63629 7.93291,-6.63629 2.72216,0 3.94874,0.70612 6.07974,3.5 1.46827,1.925 3.49327,3.5 4.5,3.5 1.00673,0 3.03173,-1.575 4.5,-3.5 5.1874,-6.80103 13.4322,-3.30195 13.4322,5.7006 0,7.14296 -4.78928,13.0654 -12.39111,15.32291 -5.59851,1.66258 -6.55015,1.68276 -11.94534,0.25335 z m 15.87042,-5.23497 c 4.16902,-3.17987 6.89633,-8.6913 6.02291,-12.17127 -0.32375,-1.28992 -1.76322,-3.11494 -3.19882,-4.05558 -2.59605,-1.701 -2.62979,-1.68746 -6.23412,2.50284 -4.8083,5.58999 -7.80517,5.63501 -12.12394,0.18212 -3.62727,-4.57981 -4.7246,-4.83688 -7.92384,-1.85633 -4.33642,4.03999 -0.91471,13.6499 6.14202,17.24995 4.92585,2.51295 12.68065,1.68366 17.31579,-1.85173 z m 48.55994,5.16659 c -7.86661,-2.51128 -13.41504,-12.17539 -11.0699,-19.28125 1.2922,-3.91539 3.49316,-5.42723 7.90106,-5.42723 2.38981,0 3.54935,0.75867 5.31574,3.47805 3.23964,4.98745 4.49416,5.06465 8.63784,0.53153 4.36821,-4.77876 7.96383,-5.25801 11.6668,-1.55503 1.81001,1.81 2.45455,3.5341 2.45455,6.56574 0,7.32694 -4.71239,13.22288 -12.39111,15.50322 -5.67014,1.68385 -7.72464,1.71421 -12.51498,0.18497 z m 13.16429,-3.1719 c 1.92634,-0.80487 4.68143,-2.86456 6.12241,-4.57707 4.6368,-5.51052 4.62436,-10.5997 -0.0334,-13.65156 -2.45039,-1.60555 -2.57825,-1.55434 -6.30864,2.52664 -4.9406,5.40495 -7.56606,5.44025 -12.30139,0.16541 -4.12331,-4.5931 -4.94661,-4.7906 -7.85331,-1.8839 -1.66413,1.66413 -2.00617,2.93564 -1.60143,5.95317 1.35839,10.12759 11.95198,15.6555 21.97573,11.46731 z m 28.39699,-36.99523 C 586.46137,632.9764 582,627.04649 582,620.04966 c 0,-8.43119 7.55881,-10.83932 14.06908,-4.48221 l 3.65341,3.56746 4.76653,-4.12541 c 2.76291,-2.39128 5.37774,-3.89087 6.22055,-3.56745 0.7997,0.30687 1.84967,0.55795 2.33326,0.55795 2.2109,0 4.95717,4.56397 4.95717,8.23822 0,7.50637 -5.56718,13.73294 -14.02005,15.68063 -5.59064,1.28818 -5.66022,1.28564 -10.32476,-0.3775 z M 606.5,632.11927 c 6.99501,-3.21212 10.53678,-9.20204 8.43761,-14.26989 -1.84899,-4.46385 -4.58146,-4.60304 -8.83454,-0.45002 -4.71852,4.6075 -7.48762,4.6075 -12.20614,0 -2.78157,-2.71613 -4.20469,-3.43646 -5.79322,-2.93228 -6.65094,2.11093 -4.11244,12.50749 4.30759,17.64197 3.88782,2.37077 8.94016,2.37444 14.0887,0.0102 z m -163.12088,2.44415 c -5.97908,-2.60226 -10.4722,-11.0721 -8.99526,-16.9567 1.58817,-6.32779 8.91577,-7.75015 13.42905,-2.60672 1.44785,1.65 3.34806,3 4.22268,3 0.87463,0 2.88361,-1.35 4.46441,-3 2.03608,-2.12521 3.81939,-3 6.11566,-3 10.39148,0 9.23957,16.46207 -1.53659,21.95966 -4.67052,2.38272 -12.96264,2.66557 -17.69995,0.60376 z m 15.35022,-2.52724 c 6.97628,-3.16686 10.74202,-12.42196 6.69923,-16.46475 -2.311,-2.31101 -3.65847,-1.96118 -7.42857,1.92857 -1.97142,2.03399 -4.37128,3.5 -5.7295,3.5 -1.33771,0 -3.83389,-1.49672 -5.83717,-3.5 -3.8689,-3.8689 -5.51723,-4.27324 -7.8619,-1.92857 -3.8629,3.86289 -0.33067,12.99338 6.41297,16.57696 4.41944,2.34849 8.39577,2.31603 13.74494,-0.11221 z m 59.27117,2.84037 C 512.15579,632.54594 508,626.43055 508,620.16044 c 0,-4.83243 2.38844,-7.93962 6.75107,-8.78264 2.90617,-0.56158 3.68153,-0.16407 7.30878,3.74699 l 4.05772,4.37521 3.35284,-3.81437 c 4.34683,-4.9452 8.69682,-5.3551 12.30567,-1.15957 4.79213,5.57119 1.02445,15.84379 -7.17715,19.56851 -4.44026,2.01652 -12.54488,2.39834 -16.59842,0.78198 z m 15.93789,-3.34469 c 3.29277,-1.70276 6.62894,-5.95983 7.55164,-9.63614 0.72786,-2.90003 -2.6335,-7.89574 -5.31262,-7.89569 -0.92258,2e-5 -2.9341,1.57502 -4.47005,3.5 -3.76209,4.71498 -7.28039,4.71497 -11.57094,-3e-5 -3.74633,-4.11694 -6.47248,-4.44295 -8.70176,-1.04064 -3.02417,4.61546 1.16945,13.08463 8.01575,16.18814 3.55079,1.60961 10.20947,1.09686 14.48798,-1.11564 z m -55.28321,-34.99051 c -2.11465,-0.75397 -4.98514,-2.42172 -6.37888,-3.70611 C 464.31907,585.50233 465.80717,572 474.57258,572 c 3.29375,0 7.42742,2.76313 7.42742,4.96482 0,0.53065 0.92519,1.45996 2.05598,2.06514 1.77919,0.95219 2.55623,0.55305 5.77188,-2.96482 4.6538,-5.09118 8.85945,-5.54465 12.19708,-1.31514 4.6959,5.95074 0.31756,16.7849 -8.42906,20.85764 -5.76904,2.68627 -9.39058,2.9126 -14.94069,0.93371 z m 14.07415,-3.50517 c 7.81407,-3.54717 11.2028,-14.06886 5.69374,-17.67854 -2.54889,-1.67009 -2.61833,-1.64315 -6.38448,2.47695 -5.43105,5.94149 -8.28482,5.59934 -14.27881,-1.71193 -2.2473,-2.74119 -3.29898,-2.67438 -6.37858,0.40522 -2.07385,2.07385 -2.40523,3.10659 -1.84504,5.75 2.20003,10.3813 12.99404,15.38817 23.19317,10.7583 z m 66.92585,3.54438 C 552.48175,593.94972 548,588.0295 548,581.18452 c 0,-9.95788 10.39184,-12.79495 15.04173,-4.10654 0.58143,1.0864 2.08495,1.92202 3.45827,1.92202 1.37332,0 2.87684,-0.83562 3.45827,-1.92202 3.96425,-7.40728 13.11422,-6.53897 14.60087,1.38558 1.16473,6.20852 -3.27626,13.85408 -10.05914,17.31775 -3.69896,1.88887 -10.8273,2.27267 -14.84481,0.79925 z m 13.77909,-3.56572 C 580.99428,589.32352 584.42721,580.42721 580,576 c -2.83713,-2.83713 -4.53083,-2.4952 -6.93868,1.40078 -3.77167,6.1027 -8.5296,6.32098 -13.06132,0.59922 -1.74243,-2.2 -3.6007,-4 -4.12948,-4 -0.52879,0 -2.09897,1.13754 -3.48931,2.52788 -2.07385,2.07385 -2.40523,3.10659 -1.84504,5.75 2.19135,10.34035 13.16856,15.48758 22.89811,10.73696 z M 521.31761,526.75 c -7.74254,-8.18393 -17.53002,-25.87623 -19.0967,-34.5201 -2.31282,-12.76059 4.23451,-23.77586 16.67831,-28.0597 10.89844,-3.75184 24.83387,2.44981 30.14142,13.41375 5.15006,10.6386 -0.6917,27.93806 -15.92724,47.16605 -4.96004,6.25981 -7.37788,6.66976 -11.79579,2 z m 11.78439,-6.57197 c 2.78305,-3.67292 7.37861,-11.33893 10.21237,-17.03558 4.37086,-8.78666 5.1523,-11.21348 5.1523,-16.001 0,-14.41841 -16.10999,-24.98651 -30.0019,-19.68114 -7.83543,2.99237 -14.39129,11.72768 -14.44281,19.2442 -0.0326,4.75632 4.13125,15.34403 9.62366,24.47074 5.53347,9.19494 12.08706,17.108 13.46403,16.25698 0.51275,-0.31689 3.20931,-3.58129 5.99235,-7.2542 z m -220.83231,-0.66062 c -9.45332,-4.10962 -9.68686,-20.1476 -0.36357,-24.96886 3.96338,-2.04954 10.57872,-1.96593 14.21083,0.17961 4.06166,2.39927 7.29294,9.35856 6.52955,14.06281 -1.53229,9.44234 -11.39184,14.63246 -20.37681,10.72644 z M 326.6,514.6 c 4.7895,-4.7895 4.78869,-10.11405 -0.002,-15.34196 -2.81838,-3.07538 -4.07623,-3.71259 -7.32867,-3.71259 -10.75966,0 -15.8392,12.03819 -8.27238,19.60501 2.32034,2.32035 3.71809,2.84954 7.52646,2.84954 3.98552,0 5.17955,-0.50263 8.07692,-3.4 z m 401.70433,4.444 c -5.35013,-3.26218 -6.7361,-6.59434 -6.41029,-15.41165 0.0711,-1.92472 1.42199,-4.18368 4.10833,-6.87002 3.93016,-3.93016 4.1106,-3.99454 10.00102,-3.56847 4.85546,0.35122 6.5515,0.96358 8.89965,3.21325 7.05194,6.75618 5.34635,18.87401 -3.22928,22.94341 -4.61416,2.18957 -9.45786,2.07851 -13.36943,-0.30652 z m 12.7284,-2.56093 c 8.69497,-4.49634 7.10991,-17.30071 -2.53574,-20.48406 -8.49235,-2.80273 -16.95594,6.65035 -13.47605,15.05155 2.64506,6.38574 9.60321,8.74652 16.01179,5.43251 z M 431.6693,467.95451 c -3.60896,-2.83881 -4.75753,-7.71662 -3.56322,-15.13256 1.27426,-7.91242 3.67649,-12.44504 9.38396,-17.70601 7.26594,-6.69751 12.36289,-8.60491 23.00996,-8.61089 7.32626,-0.004 9.85092,0.41427 13.57557,2.24972 11.59762,5.71512 18.95668,16.54785 19.12114,28.14685 0.10025,7.06989 -1.88823,10.82889 -6.55047,12.38297 -6.26077,2.08692 -10.92024,-1.47047 -12.6143,-9.63073 -1.55749,-7.50238 -6.96935,-12.65568 -13.28482,-12.65012 C 453.2211,447.01036 447,453.11845 447,460.50113 447,464.30292 441.14322,470 437.23486,470 c -1.63083,0 -4.13533,-0.92047 -5.56556,-2.04549 z M 441.68774,464.75 c 1.12,-1.2375 2.56523,-4.42842 3.21161,-7.09094 0.64638,-2.66252 2.12734,-6.12871 3.29101,-7.70266 2.3737,-3.2106 8.31094,-5.9564 12.87954,-5.9564 6.92946,0 14.35672,6.99364 15.49607,14.59138 0.79507,5.30188 3.31606,8.40862 6.82325,8.40862 6.76355,0 9.37591,-8.29444 5.69413,-18.07935 -5.29974,-14.08489 -19.65041,-22.4076 -34.05163,-19.74834 -7.4976,1.38448 -11.76588,3.767 -17.24773,9.62754 C 428.03978,449.21719 427.53322,467 436.98067,467 c 1.49958,0 3.56366,-0.98664 4.70707,-2.25 z m 121.22972,2.46756 c -4.30085,-3.84281 -4.89589,-9.63765 -1.97656,-19.24889 1.77511,-5.84416 3.10261,-8.10742 7.10007,-12.10488 7.32879,-7.32879 12.4072,-9.29876 23.95903,-9.29394 8.36667,0.003 10.11885,0.32585 14.68743,2.70219 10.54317,5.48402 17.2625,15.42965 18.07925,26.76008 0.43081,5.97637 0.24295,6.80299 -2.20818,9.71599 -3.32952,3.9569 -8.1008,5.05705 -12.36615,2.85136 -3.21152,-1.66075 -3.64547,-2.52085 -4.70222,-9.32003 -1.71201,-11.0151 -13.99996,-16.16076 -21.94139,-9.18809 -3.27441,2.87497 -4.02092,4.5228 -5.9753,13.18967 -0.69448,3.07977 -5.72513,6.70925 -9.30766,6.71524 -1.22883,0.002 -3.63557,-1.24836 -5.34832,-2.7787 z m 10.62799,-2.67211 C 574.9526,463.13831 576,460.92608 576,459.36118 c 0,-5.10054 3.75552,-11.06442 8.37583,-13.30107 10.58433,-5.12379 21.02236,0.24367 23.56935,12.11986 1.89155,8.82 6.18644,11.19137 11.69208,6.45562 7.47116,-6.42642 -0.90956,-26.1424 -13.93763,-32.78883 -10.9258,-5.57392 -25.96814,-3.4327 -35.07523,4.99284 -8.30788,7.68616 -11.42999,25.2517 -5.2247,29.39509 2.18035,1.45585 5.73855,0.71797 8.14575,-1.68924 z M 323.8728,451.31629 C 319.98083,448.90084 318,444.82886 318,439.24359 c 0,-6.6778 3.09394,-11.27648 8.81268,-13.09874 8.54525,-2.72291 16.1139,1.38098 18.32712,9.93735 1.03666,4.00773 0.94548,5.07172 -0.72728,8.4868 -2.62117,5.35139 -7.50947,8.43793 -13.3104,8.40439 -2.53117,-0.0146 -5.78436,-0.76033 -7.22932,-1.6571 z m 11.83328,-1.79039 C 339.00804,448.57876 343,443.29607 343,439.87361 c 0,-6.56097 -4.92531,-11.88414 -10.97251,-11.85887 -4.94186,0.0206 -8.23157,1.93467 -10.31103,5.99917 -2.26246,4.4222 -1.49182,9.50358 1.99956,13.18459 3.37777,3.56123 5.94878,4.06029 11.99006,2.3274 z m 380.32394,2.19479 c -6.34963,-3.21295 -8.85768,-12.57468 -5.27847,-19.70275 2.23544,-4.45191 9.22786,-7.61959 14.59647,-6.61243 13.5822,2.54804 15.26318,21.63023 2.33688,26.52788 -3.73706,1.41593 -8.61211,1.32696 -11.65488,-0.2127 z m 10.67606,-2.19479 C 730.46406,448.44796 734,443.31567 734,438.93905 c 0,-8.17038 -9.31482,-13.41321 -16.88021,-9.50099 -5.20847,2.6934 -7.02957,10.99831 -3.56962,16.27886 1.75958,2.68545 7.09109,5.40207 9.44983,4.81507 0.825,-0.20531 2.49274,-0.65805 3.70608,-1.00609 z M 520.26969,252.51741 c -9.45332,-4.10962 -9.68686,-20.1476 -0.36357,-24.96886 7.20681,-3.72679 16.20622,-0.80948 19.33713,6.26844 3.36533,7.60791 1.01328,14.481 -6.21804,18.17015 -4.59012,2.3417 -8.2397,2.49342 -12.75552,0.53027 z m 11.63147,-2.9663 c 3.81757,-1.97414 6.09884,-5.758 6.09884,-10.11593 0,-2.78822 -0.77843,-4.41361 -3.34106,-6.97624 -4.40957,-4.40957 -7.60908,-5.13577 -12.37319,-2.80838 -5.33587,2.60671 -7.96908,8.12532 -6.3907,13.39347 2.1173,7.06692 9.287,9.98167 16.00611,6.50708 z"
       id="path1" />
  </g>
</svg>
